<svg xmlns="http://www.w3.org/2000/svg" width="600" height="114.5" viewBox="1200 0 600 114.5"><linearGradient id="a" gradientUnits="userSpaceOnUse" x1="-560.939" y1="874.666" x2="-560.939" y2="798.508" gradientTransform="matrix(1.3439 0 0 -1.3439 2013.17 1178.6)"><stop offset="0" stop-color="#243f90"/><stop offset="1" stop-color="#662d91"/></linearGradient><path fill="url(#a)" d="M1275.436 110.289h-32.179c-20.456 0-36.95-16.574-36.95-36.949V41.16c0-20.455 16.574-36.949 36.95-36.949h32.179c20.455 0 36.949 16.574 36.949 36.949v32.18c0 20.374-16.575 36.949-36.949 36.949z"/><linearGradient id="b" gradientUnits="userSpaceOnUse" x1="-470.914" y1="873.653" x2="-470.914" y2="800.737" gradientTransform="matrix(1.3439 0 0 -1.3439 2013.17 1178.6)"><stop offset="0" stop-color="#243f90"/><stop offset="1" stop-color="#662d91"/></linearGradient><path fill="url(#b)" d="M1359.117 62.505c0-3.881.646-7.438 1.859-10.834a25.558 25.558 0 015.417-8.893c2.345-2.507 5.256-4.529 8.57-5.984 3.396-1.456 7.195-2.264 11.562-2.264 2.829 0 5.417.243 7.761.728 1.213.243 2.506.565 3.72.971 1.779.565 2.829 2.506 2.345 4.365l-1.375 5.175c-.485 1.94-2.505 3.072-4.447 2.587-.404-.082-.808-.243-1.212-.324a24.23 24.23 0 00-5.661-.646c-4.446 0-7.761 1.375-9.944 4.124-2.183 2.749-3.315 6.387-3.315 10.915 0 4.77 1.052 8.489 3.073 11.158 2.021 2.668 5.659 3.961 10.753 3.961 1.859 0 3.8-.161 5.901-.484.728-.081 1.456-.243 2.103-.404 2.021-.485 4.042.889 4.366 2.911l.889 5.255c.324 1.779-.808 3.557-2.587 4.042-1.051.323-2.264.565-3.477.809-2.668.566-5.497.808-8.731.808-4.852 0-9.056-.728-12.533-2.183-3.476-1.456-6.387-3.396-8.651-5.902-2.263-2.506-3.881-5.417-4.932-8.813-.888-3.397-1.454-7.116-1.454-11.078z"/><linearGradient id="c" gradientUnits="userSpaceOnUse" x1="-435.176" y1="873.653" x2="-435.176" y2="800.737" gradientTransform="matrix(1.3439 0 0 -1.3439 2013.17 1178.6)"><stop offset="0" stop-color="#243f90"/><stop offset="1" stop-color="#662d91"/></linearGradient><path fill="url(#c)" d="M1407.143 62.505c0-3.881.646-7.438 1.86-10.834a25.529 25.529 0 015.417-8.893c2.345-2.507 5.255-4.529 8.57-5.984 3.396-1.456 7.196-2.264 11.562-2.264 2.829 0 5.417.243 7.762.728 1.212.243 2.506.565 3.719.971 1.778.565 2.83 2.506 2.344 4.365l-1.374 5.175c-.484 1.94-2.506 3.072-4.447 2.587-.404-.082-.809-.243-1.212-.324a24.212 24.212 0 00-5.659-.646c-4.447 0-7.762 1.375-9.945 4.124-2.183 2.749-3.315 6.387-3.315 10.915 0 4.77 1.051 8.489 3.073 11.158 2.022 2.668 5.66 3.961 10.753 3.961 1.859 0 3.8-.161 5.902-.484.728-.081 1.456-.243 2.102-.404 2.021-.485 4.043.889 4.366 2.911l.89 5.255c.324 1.779-.809 3.557-2.587 4.042-1.052.323-2.265.565-3.477.809-2.668.566-5.499.808-8.732.808-4.851 0-9.055-.728-12.532-2.183-3.477-1.456-6.388-3.396-8.651-5.902-2.264-2.506-3.88-5.417-4.932-8.813-.892-3.397-1.457-7.116-1.457-11.078z"/><linearGradient id="d" gradientUnits="userSpaceOnUse" x1="-402.937" y1="873.654" x2="-402.937" y2="800.738" gradientTransform="matrix(1.3439 0 0 -1.3439 2013.17 1178.6)"><stop offset="0" stop-color="#243f90"/><stop offset="1" stop-color="#662d91"/></linearGradient><path fill="url(#d)" d="M1482.011 86.922c-.324 1.859-1.94 3.153-3.8 2.991-2.911-.242-5.336-.646-7.357-1.293-2.749-.889-4.851-2.103-6.468-3.719s-2.668-3.477-3.234-5.74c-.565-2.264-.889-4.77-.889-7.601V16.096c0-1.778 1.293-3.315 2.992-3.557l7.842-1.294c2.183-.323 4.205 1.375 4.205 3.558v53.686c0 1.374.081 2.587.323 3.638s.566 2.021 1.132 2.749c.565.728 1.374 1.375 2.506 1.86.322.162.727.243 1.131.404 1.779.485 2.911 2.264 2.668 4.124l-1.051 5.658z"/><linearGradient id="e" gradientUnits="userSpaceOnUse" x1="-370.13" y1="873.654" x2="-370.13" y2="800.737" gradientTransform="matrix(1.3439 0 0 -1.3439 2013.17 1178.6)"><stop offset="0" stop-color="#243f90"/><stop offset="1" stop-color="#662d91"/></linearGradient><path fill="url(#e)" d="M1541.923 62.344c0 4.204-.648 8.004-1.861 11.48-1.212 3.477-2.992 6.468-5.255 8.894-2.264 2.425-5.013 4.366-8.246 5.741-3.234 1.374-6.793 2.021-10.754 2.021-3.881 0-7.438-.647-10.673-2.021-3.234-1.375-5.983-3.234-8.247-5.741-2.264-2.426-4.042-5.417-5.336-8.894-1.293-3.477-1.94-7.277-1.94-11.48 0-4.204.647-8.005 1.94-11.4 1.294-3.477 3.153-6.388 5.498-8.813 2.345-2.427 5.095-4.286 8.327-5.661 3.235-1.374 6.712-2.021 10.431-2.021 3.881 0 7.357.647 10.591 2.021 3.234 1.375 5.983 3.234 8.247 5.661 2.265 2.425 4.043 5.335 5.336 8.813 1.293 3.476 1.942 7.276 1.942 11.4zm-15.362 0c0-4.69-.891-8.328-2.75-10.996-1.859-2.668-4.527-3.961-7.924-3.961-3.476 0-6.063 1.293-8.004 3.961-1.858 2.668-2.829 6.306-2.829 10.996 0 4.689.971 8.328 2.829 11.076 1.86 2.75 4.528 4.124 8.004 4.124 3.477 0 6.064-1.375 7.924-4.124 1.778-2.668 2.75-6.387 2.75-11.076z"/><linearGradient id="f" gradientUnits="userSpaceOnUse" x1="-327.595" y1="873.655" x2="-327.595" y2="800.736" gradientTransform="matrix(1.3439 0 0 -1.3439 2013.17 1178.6)"><stop offset="0" stop-color="#243f90"/><stop offset="1" stop-color="#662d91"/></linearGradient><path fill="url(#f)" d="M1572.644 34.45c4.449 0 8.168.485 11.159 1.536 2.99 1.051 5.336 2.426 7.114 4.366 1.779 1.859 3.072 4.204 3.8 6.873.729 2.667 1.132 5.66 1.132 8.974v31.37c-2.182.485-5.175 1.051-8.974 1.698-3.801.646-8.488.97-13.987.97-3.477 0-6.55-.324-9.379-.89-2.83-.647-5.174-1.617-7.195-2.991-2.021-1.375-3.559-3.153-4.69-5.417-1.05-2.264-1.616-4.932-1.616-8.167 0-3.072.647-5.74 1.86-7.923 1.212-2.183 2.909-3.881 5.012-5.175 2.102-1.293 4.447-2.183 7.195-2.749a40.622 40.622 0 018.41-.889c1.939 0 3.719.081 5.174.242 1.536.162 2.749.404 3.72.646v-1.455c0-2.587-.811-4.608-2.347-6.146-1.534-1.536-4.284-2.344-8.084-2.344-2.587 0-5.093.162-7.6.566-.972.161-1.94.322-2.83.484-2.021.404-3.963-.889-4.286-2.991l-.808-4.932c-.323-1.86.89-3.639 2.749-4.042 1.294-.324 2.75-.565 4.285-.809 1.535-.242 3.153-.404 4.931-.647 1.78-.078 3.478-.158 5.255-.158zm1.214 44.064c1.454 0 2.91 0 4.284-.081 1.375-.081 2.425-.162 3.235-.323v-11.4c-.648-.163-1.537-.243-2.75-.405s-2.345-.242-3.315-.242c-1.454 0-2.748.081-3.962.242-1.212.162-2.345.485-3.314.97a5.908 5.908 0 00-2.264 1.941c-.566.809-.809 1.859-.809 3.072 0 2.344.809 3.962 2.346 4.932 1.617.89 3.799 1.294 6.549 1.294z"/><linearGradient id="g" gradientUnits="userSpaceOnUse" x1="-180.375" y1="873.655" x2="-180.375" y2="800.736" gradientTransform="matrix(1.3439 0 0 -1.3439 2013.17 1178.6)"><stop offset="0" stop-color="#243f90"/><stop offset="1" stop-color="#662d91"/></linearGradient><path fill="url(#g)" d="M1770.488 34.45c4.447 0 8.166.485 11.156 1.536 2.993 1.051 5.336 2.426 7.116 4.366 1.78 1.859 3.072 4.204 3.801 6.873.727 2.667 1.131 5.66 1.131 8.974v31.37c-2.183.485-5.174 1.051-8.974 1.698-3.801.646-8.49.97-13.988.97-3.476 0-6.55-.324-9.379-.89-2.828-.647-5.174-1.617-7.195-2.991-2.022-1.375-3.557-3.153-4.688-5.417-1.053-2.264-1.617-4.932-1.617-8.167 0-3.072.646-5.74 1.858-7.923 1.214-2.183 2.911-3.881 5.013-5.175 2.104-1.293 4.447-2.183 7.196-2.749a40.603 40.603 0 018.408-.889c1.941 0 3.719.081 5.175.242 1.536.162 2.749.404 3.719.646v-1.455c0-2.587-.808-4.608-2.344-6.146-1.537-1.536-4.286-2.344-8.085-2.344-2.589 0-5.094.162-7.602.566-.97.161-1.939.322-2.829.484-2.021.404-3.962-.889-4.284-2.991l-.81-4.932c-.324-1.86.89-3.639 2.749-4.042 1.294-.324 2.748-.565 4.286-.809 1.536-.242 3.153-.404 4.931-.647 1.78-.078 3.476-.158 5.256-.158zm1.212 44.064c1.456 0 2.911 0 4.286-.081 1.374-.081 2.426-.162 3.233-.323v-11.4c-.646-.163-1.536-.243-2.748-.405a25.55 25.55 0 00-3.315-.242c-1.456 0-2.75.081-3.962.242-1.213.162-2.345.485-3.314.97a5.894 5.894 0 00-2.264 1.941c-.566.809-.809 1.859-.809 3.072 0 2.344.809 3.962 2.345 4.932 1.618.89 3.719 1.294 6.548 1.294z"/><linearGradient id="h" gradientUnits="userSpaceOnUse" x1="-283.465" y1="873.654" x2="-283.465" y2="800.737" gradientTransform="matrix(1.3439 0 0 -1.3439 2013.17 1178.6)"><stop offset="0" stop-color="#243f90"/><stop offset="1" stop-color="#662d91"/></linearGradient><path fill="url(#h)" d="M1609.433 40.514c0-1.697 1.132-3.153 2.748-3.477 2.021-.484 4.447-.889 7.116-1.374 4.042-.646 8.327-.97 12.774-.97 4.527 0 8.246.566 11.238 1.778 2.991 1.212 5.336 2.83 7.114 5.014 1.778 2.182 2.992 4.689 3.72 7.68.728 2.992 1.132 6.307 1.132 9.945v26.438a3.625 3.625 0 01-3.64 3.64h-7.841a3.626 3.626 0 01-3.64-3.64V60.969c0-4.85-.646-8.328-1.939-10.349-1.295-2.021-3.639-3.072-7.195-3.072-1.052 0-2.266.08-3.478.161-1.213.081-2.265.243-3.233.323v37.434a3.624 3.624 0 01-3.639 3.639h-7.843a3.624 3.624 0 01-3.639-3.639V40.514h.245z"/><linearGradient id="i" gradientUnits="userSpaceOnUse" x1="-10830.922" y1="13203.338" x2="-10830.922" y2="13130.421" gradientTransform="matrix(-1.3439 0 0 1.3439 -12841.353 -17623.11)"><stop offset="0" stop-color="#662d91"/><stop offset="1" stop-color="#243f90"/></linearGradient><path fill="url(#i)" d="M1736.692 84.335c0 1.699-1.132 3.153-2.749 3.477-2.022.485-4.447.889-7.115 1.374-4.042.647-8.327.97-12.775.97-4.526 0-8.245-.565-11.238-1.778-2.99-1.212-5.336-2.83-7.113-5.013-1.779-2.183-2.991-4.689-3.72-7.681-.729-2.991-1.132-6.306-1.132-9.945V39.301a3.623 3.623 0 013.639-3.638h7.843a3.624 3.624 0 013.639 3.638V63.88c0 4.852.646 8.328 1.939 10.349 1.293 2.022 3.638 3.073 7.196 3.073 1.051 0 2.263-.081 3.477-.162 1.212-.081 2.263-.242 3.233-.323V39.382a3.624 3.624 0 013.638-3.639h7.844a3.624 3.624 0 013.638 3.639v44.953h-.244z"/><linearGradient id="j" gradientUnits="userSpaceOnUse" x1="-252.18" y1="873.655" x2="-252.18" y2="800.737" gradientTransform="matrix(1.3439 0 0 -1.3439 2013.17 1178.6)"><stop offset="0" stop-color="#243f90"/><stop offset="1" stop-color="#662d91"/></linearGradient><path fill="url(#j)" d="M1683.734 81.101c0 3.073-.97 5.336-2.91 6.954-1.941 1.617-4.124 2.345-6.55 2.345-2.425 0-4.608-.809-6.548-2.345-1.941-1.617-2.911-3.881-2.911-6.954 0-3.072.97-5.335 2.911-6.953 1.939-1.617 4.123-2.345 6.548-2.345 2.426 0 4.608.809 6.55 2.345 1.941 1.617 2.91 3.881 2.91 6.953z"/><linearGradient id="k" gradientUnits="userSpaceOnUse" x1="-577.874" y1="824.167" x2="-546.561" y2="824.167" gradientTransform="matrix(1.3439 0 0 -1.3439 2013.17 1178.6)"><stop offset="0" stop-color="#939598"/><stop offset=".127" stop-color="#a8aaac"/><stop offset=".386" stop-color="#cecfd0"/><stop offset=".626" stop-color="#e9e9ea"/><stop offset=".838" stop-color="#f9f9f9"/><stop offset="1" stop-color="#fff"/></linearGradient><path fill="url(#k)" d="M1278.669 88.54L1247.3 78.11c-6.388-2.103-10.753-8.166-10.753-14.877v-9.701l42.042 13.987V88.54h.08z"/><path fill="#FFF" d="M1278.669 46.416l-42.042 13.988v-9.702a15.662 15.662 0 0110.753-14.877l31.371-10.429v21.021h-.082z"/></svg>