<svg version="1.2" baseProfile="tiny" xmlns="http://www.w3.org/2000/svg" width="444" height="200"><g fill-rule="evenodd"><path fill="#FCD946" d="M81.076 148.601c9.805.002 19.61.01 29.416-.016.603-.001 1.206-.27 1.808-.414-.211-.576-.363-1.184-.643-1.724-2.116-4.075-4.27-8.132-6.38-12.209-.56-1.08-1.349-1.586-2.588-1.585-16.887.021-33.774.018-50.661.023-2.067 0-2.436-.38-1.945-2.387.922-3.773 1.581-7.661 2.971-11.261 2.624-6.793 6.696-12.713 12.966-16.655 3.256-2.046 6.786-3.98 10.461-4.97 7.188-1.934 14.576-2.979 22.088-1.893 1.828.264 3.671.523 5.513.576 2.053.058 3.262 1.075 4.202 2.791 2.854 5.211 5.796 10.375 8.684 15.567 2.783 5.004 5.533 10.025 8.314 15.032a3398.954 3398.954 0 009.721 17.397c.675 1.196.741 2.289.116 3.539-1.925 3.862-3.78 7.759-5.658 11.645-1.593 3.294-3.221 6.573-4.755 9.896-1.534 3.324-3.106 6.642-4.403 10.06-.799 2.105-2.28 3.109-4.243 3.603-8.244 2.071-16.593 3.504-25.123 2.858-4.098-.312-8.259-.79-12.208-1.866-7.719-2.103-14.798-5.573-20.008-11.944-2.678-3.274-4.659-6.956-6.012-11.016-1.443-4.33-2.55-8.688-2.875-13.256-.109-1.529.435-1.826 1.826-1.82 9.805.05 19.611.027 29.416.029z"/><path fill="#FCD946" d="M54.275 13.343c5.439 4.354 9.882 9.263 12.792 15.402 1.38 2.914 2.808 5.867 3.64 8.958.838 3.108 1.031 6.402 1.375 9.63.23 2.165.336 2.374 2.559 2.374 1.579 0 3.163.064 4.737-.03 1.017-.06 1.609.302 2.083 1.173a1488.66 1488.66 0 006.736 12.187c2.738 4.908 5.456 9.826 8.271 14.69.683 1.18.53 1.49-.79 1.555-3.913.192-7.839.304-11.728.736-2.784.309-5.531 1.014-8.265 1.67-2.876.691-5.815 1.288-8.55 2.371-3.756 1.486-7.465 3.183-10.98 5.168-5.776 3.261-10.672 7.663-14.822 12.832-3.234 4.026-5.988 8.385-7.75 13.271a183.758 183.758 0 00-3.658 11.204c-.539 1.862-.83 3.834-.944 5.773-.413 7.057-.963 14.123.438 21.148.464 2.331.726 4.708 1.297 7.012.568 2.297 1.185 4.629 2.176 6.762 1.638 3.521 3.39 7.026 5.462 10.305 3.82 6.048 8.958 10.881 14.831 14.938.487.337 1.03.592 1.541.895.456.271.902.556 1.783 1.101-.866.177-1.323.35-1.78.351-9.422.001-18.845-.019-28.268-.03-2.793-.003-2.695-.039-3.733-2.558a426.327 426.327 0 00-5.88-13.641c-2.762-6.084-5.615-12.131-8.473-18.173-1.747-3.691-3.611-7.33-5.335-11.032-.214-.459-.071-1.26.195-1.745 3.653-6.621 7.374-13.205 11.042-19.82 3.535-6.375 7.001-12.789 10.549-19.155 3.182-5.708 6.467-11.36 9.649-17.068 3.181-5.706 6.267-11.465 9.444-17.174 3.178-5.71 6.422-11.384 9.627-17.081 1.138-2.021 2.309-4.026 3.341-6.101.604-1.214 1.453-1.618 2.742-1.557 1.631.076 3.269-.014 4.901.042 1.102.036 1.548-.354 1.571-1.507.071-3.682-.732-7.165-1.85-10.66C61.867 30.098 57.546 24.02 51.624 19c-.757-.643-.911-1.227-.182-2.054.993-1.126 1.865-2.359 2.833-3.603z"/><path fill="#27874F" d="M99.726 43.097c-3.411-.5-6.94-.613-10.2-1.609-3.348-1.023-6.454-2.869-9.621-4.445-1.048-.521-1.944-1.343-2.935-1.99-1.047-.684-1.128-1.69-.876-2.73.316-1.303.611-2.646 1.182-3.845 1.512-3.171 2.963-6.403 4.835-9.359 1.345-2.125 3.232-3.941 5.048-5.721 2.909-2.853 6.27-5.158 10.009-6.747 2.485-1.056 5.192-1.573 7.766-2.433 2.684-.896 5.427-.924 8.208-.951 3.62-.035 7.01.896 10.465 1.816 4.581 1.219 8.433 3.694 12.205 6.351.474.333.654 1.543.49 2.233-.468 1.968-.983 3.973-1.848 5.788-1.33 2.785-2.806 5.53-4.511 8.097a29.129 29.129 0 01-8.249 8.238c-2.1 1.382-4.24 2.776-6.535 3.763-2.753 1.183-5.641 2.15-8.562 2.808-2.197.495-4.536.354-6.812.495-.021.081-.04.161-.059.241zm281.702 118.525c-10.787.001-21.572.003-32.359 0-2.073-.001-2.057-.011-2.057-2.103.006-15.036.004-30.07.004-45.105 0-2.237-.002-2.239 2.294-2.244 1.253-.003 2.505-.014 3.759.005 1.919.025 2.147.245 2.151 2.193.008 6.919 0 13.837 0 20.755-.002 5.937.026 11.876-.026 17.813-.014 1.38.377 1.947 1.854 1.933 5.938-.064 11.875-.022 17.813-.029 2.125-.002 2.389-.298 2.389-2.474-.004-12.747.017-25.495-.034-38.242-.006-1.499.438-2.093 1.958-1.974 1.297.1 2.613.012 3.92.021 2.159.018 2.354.204 2.357 2.317.006 5.176-.002 10.351-.003 15.525 0 7.627.028 15.252-.029 22.88-.009 1.491.465 1.995 1.979 1.976 5.884-.07 11.767-.024 17.65-.029 2.193-.001 2.446-.271 2.444-2.414-.005-12.802.014-25.603-.032-38.404-.005-1.448.491-1.95 1.9-1.871 1.573.088 3.158.032 4.738.027 1.073-.002 1.613.508 1.594 1.597-.009.49.006.981.006 1.471.002 14.817-.022 29.635.036 44.452.008 1.54-.466 1.959-1.948 1.952-10.787-.049-21.572-.028-32.358-.028zM273.037 136.88c.548-3.34.62-6.747 1.724-9.778 1.597-4.395 4.054-8.332 8.124-11.172 3.105-2.164 6.467-3.853 10.005-4.501 4.522-.827 9.157-2.042 13.887-.668 2.361.686 4.896.784 7.257 1.476 1.772.518 3.57 1.32 5.043 2.415 2.407 1.787 4.854 3.676 6.734 5.972 1.568 1.913 2.655 4.376 3.396 6.77.929 3.005 1.731 6.18 1.79 9.296.093 5.03-.974 9.913-3.674 14.345-2.706 4.441-6.354 7.665-11.152 9.692-5.171 2.183-10.553 3.24-16.104 2.836-3.138-.229-6.238-1.139-9.327-1.862-4.938-1.156-8.999-3.859-12.097-7.784-1.943-2.462-3.651-5.186-4.164-8.433-.456-2.869-.958-5.728-1.442-8.604zm49.922.07c.134-.021.269-.045.401-.068-.516-2.8-.689-5.721-1.625-8.372-1.651-4.673-4.977-8.261-9.556-10.016-3.264-1.25-6.939-1.78-10.454-1.886-2.769-.086-5.628.775-8.338 1.584-1.966.587-3.977 1.49-5.573 2.753-3.602 2.848-5.402 6.693-6.294 11.297-.907 4.688-.333 8.99 1.072 13.38 1.184 3.689 3.579 6.414 6.722 8.44 2.253 1.454 4.893 1.999 7.508 2.706 5.522 1.493 10.672.352 15.688-1.493 3.191-1.171 5.785-3.531 7.577-6.559 2.144-3.623 3.201-7.527 2.872-11.766zm-106.889.087c0-7.677.035-15.354-.031-23.03-.012-1.456.458-1.875 1.87-1.862 6.914.056 13.837-.168 20.74.11 3.413.138 6.847.938 10.169 1.824a34.608 34.608 0 017.713 3.084c3.324 1.831 5.738 4.545 7.229 8.213 1.246 3.066 1.133 6.146.541 9.093-.652 3.235-2.676 5.948-5.345 8.049-2.304 1.812-4.812 3.215-7.643 4.027-1.959.563-3.903 1.182-5.861 1.746-.463.133-.96.205-1.443.213-5.987.094-11.975.221-17.962.213-1.398-.001-1.835.458-1.817 1.765.044 3.212-.022 6.427.046 9.637.024 1.163-.405 1.552-1.519 1.518a68.353 68.353 0 00-5.062.004c-1.305.057-1.661-.468-1.651-1.736.052-7.623.026-15.247.026-22.868zm8.176-6.369c0 3.318.079 6.642-.037 9.957-.052 1.507.5 1.84 1.879 1.818 4.298-.071 8.599-.089 12.896-.007 3.732.074 7.309-.46 10.748-1.964 6.146-2.688 8.333-9.123 5.493-14.8-1.961-3.922-5.738-5.874-9.816-6.273-6.422-.629-12.916-.521-19.377-.804-1.417-.062-1.817.502-1.804 1.786.036 3.43.013 6.857.018 10.287zm-55.504 6.151c.001-7.623.03-15.248-.027-22.872-.01-1.348.376-1.806 1.746-1.801 10.347.042 20.694.039 31.042.004 1.29-.006 1.767.436 1.669 1.718-.089 1.189-.074 2.398-.007 3.591.076 1.339-.423 1.788-1.802 1.775-7.407-.063-14.813-.032-22.219-.033-2.282 0-2.273.001-2.273 2.201.004 12.853-.013 25.704.032 38.556.005 1.315-.435 1.741-1.694 1.683a46.758 46.758 0 00-4.736.002c-1.354.072-1.771-.418-1.76-1.786.061-7.679.029-15.358.029-23.038zm265.095.711c0-7.514.03-15.027-.028-22.541-.011-1.338.347-1.894 1.733-1.821 1.629.084 3.265.055 4.897.007 1.079-.03 1.561.299 1.561 1.486-.03 15.191-.028 30.383-.004 45.573.004 1.117-.476 1.42-1.474 1.397-1.689-.038-3.381-.069-5.064.01-1.313.062-1.656-.469-1.647-1.731.051-7.46.026-14.92.026-22.38z"/></g></svg>