<svg version="1.1" id="Слой_1" xmlns="http://www.w3.org/2000/svg" x="0" y="0" width="452" height="186" xml:space="preserve"><style>.st0{fill:#404a9f}</style><path class="st0" d="M27.9 167.2c.2.3.1.5-.1.7L25 170c-.3.3-.7.1-.8-.1-1.8-2.4-3.8-3.5-6.7-3.5-4.4 0-7.3 3.1-7.3 7.4 0 4.3 2.9 7.5 7.3 7.5 3 0 5.1-1 6.9-3.7.2-.2.4-.2.7 0l2.8 2.2c.2.2.3.5.1.7-2.2 3.7-6 5.6-10.4 5.6-7 0-12.3-5.3-12.3-12.3 0-7 5.3-12.2 12.3-12.2 4 0 8.2 2 10.3 5.6zm60.4-5.3c5.3 0 9.4 3.7 9.4 8.7 0 3.1-1.7 5.8-4.2 7.3l3.8 7.2c.2.3 0 .6-.4.6h-4.3c-.4 0-.6-.1-.8-.4l-2.9-5.9H82v5.7c0 .4-.2.6-.6.6h-3.9c-.4 0-.6-.2-.6-.6v-22.5c0-.4.2-.6.6-.6l10.8-.1zm0 12.7c2.8 0 4.3-1.7 4.3-4 0-2.2-1.5-3.9-4.3-3.9H82v7.8h6.3zm77.2-12.7c.4 0 .6.2.6.6v3.5c0 .4-.2.6-.6.6h-13.3v4.4h11.6c.4 0 .6.2.6.6v3.5c0 .4-.2.6-.6.6h-11.6v5.1h13.6c.4 0 .6.2.6.6v3.5c0 .4-.2.6-.6.6h-18.1c-.4 0-.6-.2-.6-.6v-22.5c0-.3.3-.6.6-.6l17.8.1zm60.5 0c6.8 0 12.3 4.9 12.3 11.9 0 7.1-5.5 11.9-12.3 11.9h-9.3c-.4 0-.6-.2-.6-.6v-22.5c0-.4.2-.6.6-.6l9.3-.1zm-4.9 19h4.9c4.3 0 7.1-2.7 7.1-7.1 0-4.4-2.8-7.1-7.1-7.1h-4.9v14.2zm70.7-19c.4 0 .6.2.6.6V185c0 .4-.2.6-.6.6h-3.9c-.4 0-.6-.2-.6-.6v-22.5c0-.4.2-.6.6-.6h3.9zm69.7 0c.4 0 .6.2.6.6v3.6c0 .4-.2.6-.6.6h-7.6V185c0 .4-.2.6-.6.6h-3.9c-.4 0-.6-.2-.6-.6v-18.3h-7.6c-.4 0-.6-.2-.6-.6v-3.6c0-.4.2-.6.6-.6h20.3zm-85.3-27.4H236c-22.1 0-40.2-17.9-40.2-40V69.8c0-22 18-40 40.2-40h40.2c22.1 0 40.2 17.9 40.2 40v24.8c-.1 22-18.1 39.9-40.2 39.9zM236 45.8c-13.3 0-24.1 10.8-24.1 24v24.8c0 13.2 10.8 24 24.1 24h40.2c13.3 0 24.1-10.8 24.1-24V69.8c0-13.2-10.8-24-24.1-24H236zm-53.9 88.7c-27.1 0-49.1-21.9-49.1-48.9V0h9.2c3.8 0 6.9 3.1 6.9 6.9v78.8c0 16.2 11.8 29.7 27.3 32.4 3.3.6 5.7 3.3 5.7 6.6v9.8zm-90.6 0h-66C11.4 134.5 0 123.1 0 109.1h10.7c2.7 0 5.1 1.5 6.2 3.9 1.5 3.2 4.8 5.5 8.6 5.5H91c5.1 0 9.7-3.4 10.7-8.3 1.2-5.8-2.6-11.2-8.1-12.4l-72-15.5C9.7 79.7.6 69.6 0 57.5c-.7-15.2 11.5-27.7 26.6-27.7H91c14.1 0 25.5 11.4 25.5 25.4h-10.7c-2.7 0-5.1-1.5-6.2-3.9-1.5-3.2-4.8-5.5-8.6-5.5H27c-5.1 0-9.7 3.4-10.7 8.3-1.2 5.8 2.6 11.2 8.1 12.4l72.7 15.6c12.1 2.6 21 13.5 21 25.9 0 14.6-12 26.5-26.6 26.5zm320.3-44.4H403c-4 0-7.2-3.2-7.2-7.2v-8.7h8.7c4 0 7.2 3.2 7.2 7.2v8.7z"/><path class="st0" d="M443 185.7h9.2v-92c0-35.3-28.8-63.9-64.3-63.9h-41.8c-6.7 0-12 5.4-12 12v65c0 15.3 12.5 27.7 27.9 27.7v-10.4c0-2.8-1.6-5.3-4.2-6.3-4.4-1.7-7.6-6-7.6-11v-61h37.7c26.6 0 48.2 21.5 48.2 48v85.1c0 3.7 3.1 6.8 6.9 6.8z"/></svg>