<?xml version="1.0" encoding="utf-8"?>
<!-- Generator: Adobe Illustrator 22.1.0, SVG Export Plug-In . SVG Version: 6.00 Build 0)  -->
<svg version="1.2" baseProfile="tiny" id="Слой_1"
	 xmlns="http://www.w3.org/2000/svg" xmlns:xlink="http://www.w3.org/1999/xlink" x="0px" y="0px" viewBox="0 0 420 136.9"
	 xml:space="preserve">
<path fill="#1A2635" d="M121.2,118.5c-0.1-0.2-0.2-0.4-0.2-0.6v-14.1c0-0.2,0.1-0.4,0.2-0.6l0.6-0.2h4c0.9,0,1.8,0.2,2.6,0.6
	c0.8,0.4,1.4,1,1.8,1.8c0.4,0.8,0.6,1.7,0.6,2.6c0,0.9-0.2,1.8-0.6,2.6c-0.4,0.8-1,1.4-1.8,1.8c-0.8,0.4-1.7,0.6-2.6,0.6h-3.2v4.7
	c0,0.2-0.1,0.4-0.2,0.6l-0.6,0.2H121.2z M125.8,111.7c0.6,0,1.3-0.2,1.8-0.5c0.5-0.3,0.9-0.7,1.2-1.2c0.3-0.5,0.5-1.2,0.5-1.8
	c0-0.7-0.2-1.3-0.5-1.9c-0.3-0.5-0.7-1-1.2-1.3c-0.5-0.3-1.2-0.5-1.8-0.5h-3.2v7.1L125.8,111.7z"/>
<path fill="#1A2635" d="M135.5,118.1c-0.8-0.5-1.5-1.2-2-2c-1-1.8-1-3.9,0-5.7c0.5-0.8,1.2-1.5,2-2c1.8-1,3.9-1,5.7,0
	c0.8,0.5,1.5,1.2,2,2c1,1.8,1,3.9,0,5.7c-0.5,0.8-1.2,1.5-2,2C139.4,119.1,137.3,119.1,135.5,118.1z M140.4,116.9
	c0.6-0.4,1.1-0.9,1.4-1.5c0.7-1.3,0.7-3,0-4.3c-0.3-0.6-0.8-1.1-1.4-1.5c-1.3-0.7-2.8-0.7-4.1,0c-0.6,0.4-1.1,0.9-1.5,1.5
	c-0.7,1.3-0.7,3,0,4.3c0.4,0.6,0.9,1.1,1.5,1.5C137.6,117.6,139.1,117.6,140.4,116.9z"/>
<path fill="#1A2635" d="M154.3,113.9c0.4,0.5,0.6,1.1,0.6,1.7c0,0.6-0.2,1.2-0.5,1.7c-0.4,0.5-0.9,0.9-1.5,1.2
	c-0.7,0.3-1.4,0.4-2.1,0.4c-0.8,0-1.6-0.2-2.4-0.5c-0.7-0.3-1.3-0.7-1.8-1.3c-0.1-0.1-0.2-0.2-0.2-0.4c0-0.3,0.1-0.5,0.4-0.6h0.3
	c0.3,0,0.5,0.1,0.7,0.3c0.4,0.4,0.8,0.7,1.3,0.9c0.5,0.2,1.1,0.3,1.7,0.3c0.7,0,1.3-0.1,1.9-0.5c0.5-0.3,0.8-0.8,0.8-1.4
	c0-0.5-0.2-1-0.6-1.3c-0.4-0.4-0.9-0.6-1.5-0.6h-1l-0.6-0.2c-0.1-0.1-0.2-0.3-0.2-0.5c0-0.2,0.1-0.4,0.2-0.5l0.6-0.2h1
	c0.5,0,0.9-0.2,1.2-0.5c0.3-0.3,0.5-0.7,0.5-1.2c0-0.5-0.2-0.9-0.6-1.2c-0.5-0.3-1.1-0.5-1.7-0.5c-1-0.1-2,0.3-2.7,1.1
	c-0.1,0.2-0.4,0.3-0.6,0.3h-0.4c-0.2-0.1-0.3-0.3-0.3-0.5c0-0.2,0.1-0.4,0.2-0.5c0.5-0.6,1-1,1.7-1.3c0.7-0.3,1.4-0.5,2.2-0.5
	c0.7,0,1.4,0.1,2,0.4c0.4,0.2,0.8,0.6,1.1,1c0.3,0.4,0.5,1,0.5,1.5c0,0.5-0.2,1.1-0.5,1.5c-0.4,0.4-0.9,0.7-1.4,0.9
	C153.3,113,153.9,113.4,154.3,113.9z"/>
<path fill="#1A2635" d="M166.6,108.4v0.4l-5,11.5c-0.4,0.9-1,1.7-1.7,2.4c-0.6,0.5-1.4,0.8-2.2,0.8c-0.6,0-1.1-0.2-1.6-0.5l-0.3-0.3
	c-0.1-0.1-0.1-0.3-0.1-0.4c0-0.2,0.1-0.3,0.2-0.4c0.1-0.2,0.4-0.3,0.6-0.3l0.5,0.2l0.9,0.3c0.5,0,1-0.2,1.3-0.6
	c0.5-0.5,0.8-1.1,1.1-1.7l0.7-1.7l-4.4-9.2c-0.1-0.1-0.1-0.3-0.1-0.4c0-0.3,0.1-0.5,0.4-0.6h0.3c0.3,0,0.5,0.2,0.6,0.4l3.9,8.1
	l3.5-8c0.1-0.3,0.4-0.5,0.7-0.5h0.3C166.4,108,166.6,108.2,166.6,108.4z"/>
<path fill="#1A2635" d="M181.3,107.9c0.1,0.2,0.2,0.4,0.2,0.6v9.4c0,0.2-0.1,0.4-0.2,0.6l-0.6,0.2l-0.6-0.2
	c-0.1-0.2-0.2-0.4-0.2-0.6v-7.5l-3.8,5.5c-0.2,0.2-0.4,0.4-0.7,0.4c-0.3,0-0.5-0.2-0.7-0.4l-3.8-5.4v7.4c0,0.2-0.1,0.4-0.2,0.6
	l-0.6,0.2l-0.6-0.2c-0.1-0.2-0.2-0.4-0.2-0.6v-9.4c0-0.2,0.1-0.4,0.2-0.6l0.6-0.2c0.3,0,0.6,0.2,0.8,0.5l4.4,6.4l4.4-6.4
	c0.2-0.3,0.5-0.5,0.8-0.5L181.3,107.9z"/>
<path fill="#1A2635" d="M195.3,108c0.1,0.2,0.2,0.4,0.2,0.6v9.4c0,0.2-0.1,0.4-0.2,0.6l-0.5,0.2l-0.6-0.2c-0.1-0.2-0.2-0.4-0.2-0.6
	v-4h-7v4c0,0.2-0.1,0.4-0.2,0.6l-0.6,0.2l-0.5-0.2c-0.1-0.2-0.2-0.4-0.2-0.6v-9.4c0-0.2,0.1-0.4,0.2-0.6l0.5-0.2l0.6,0.2
	c0.1,0.2,0.2,0.4,0.2,0.6v4h7v-4c0-0.2,0.1-0.4,0.2-0.6l0.6-0.2L195.3,108z"/>
<path fill="#1A2635" d="M209.2,108c0.1,0.1,0.2,0.3,0.2,0.5v9.4c0,0.2-0.1,0.4-0.2,0.6l-0.6,0.2l-0.5-0.2c-0.1-0.2-0.2-0.4-0.2-0.6
	v-0.7c-0.4,0.5-1,0.9-1.6,1.2c-0.6,0.3-1.3,0.4-2,0.4c-0.9,0-1.7-0.2-2.5-0.6c-0.8-0.4-1.4-1-1.8-1.7c-0.4-0.8-0.6-1.8-0.6-2.7v-5.2
	c0-0.2,0.1-0.4,0.2-0.5l0.5-0.2l0.6,0.2c0.1,0.1,0.2,0.3,0.2,0.5v5.2c-0.1,1,0.3,2,1,2.7c0.7,0.6,1.6,1,2.6,0.9
	c0.6,0,1.2-0.1,1.8-0.4c0.5-0.2,1-0.6,1.3-1c0.3-0.4,0.5-1,0.5-1.5v-5.9c0-0.2,0.1-0.4,0.2-0.5l0.5-0.2L209.2,108z"/>
<path fill="#1A2635" d="M223.1,108c0.1,0.1,0.2,0.3,0.2,0.5v9.4c0,0.2-0.1,0.4-0.2,0.6l-0.6,0.2l-0.5-0.2c-0.1-0.2-0.2-0.4-0.2-0.6
	v-0.7c-0.4,0.5-1,0.9-1.6,1.2c-0.6,0.3-1.3,0.4-2,0.4c-0.9,0-1.7-0.2-2.5-0.6c-0.8-0.4-1.4-1-1.8-1.7c-0.4-0.8-0.6-1.8-0.6-2.7v-5.2
	c0-0.2,0.1-0.4,0.2-0.5l0.5-0.2l0.6,0.2c0.1,0.1,0.2,0.3,0.2,0.5v5.2c-0.1,1,0.3,2,1,2.7c0.7,0.6,1.6,1,2.6,0.9
	c0.6,0,1.2-0.1,1.8-0.4c0.5-0.2,1-0.6,1.3-1c0.3-0.4,0.5-1,0.5-1.5v-5.9c0-0.2,0.1-0.4,0.2-0.5l0.5-0.2L223.1,108z M216.6,106
	c-0.5-0.2-0.9-0.5-1.2-0.9c-0.3-0.4-0.5-0.8-0.5-1.3c0-0.2,0.1-0.4,0.2-0.6l0.5-0.2l0.5,0.2c0.1,0.2,0.2,0.4,0.2,0.6
	c0,0.4,0.2,0.7,0.6,0.9c0.9,0.5,2,0.5,2.9,0c0.4-0.2,0.6-0.5,0.6-0.9c0-0.2,0.1-0.4,0.2-0.6l0.5-0.2l0.5,0.2
	c0.1,0.2,0.2,0.4,0.2,0.6c0,0.5-0.2,0.9-0.5,1.3c-0.3,0.4-0.7,0.7-1.2,0.9C219,106.4,217.7,106.4,216.6,106z"/>
<path fill="#1A2635" d="M241.2,108.2c0.8,0.4,1.4,1,1.8,1.8c0.4,0.9,0.6,1.8,0.6,2.8v5.2c0,0.2-0.1,0.4-0.2,0.5l-0.5,0.2l-0.6-0.2
	c-0.1-0.1-0.2-0.3-0.2-0.5v-5.2c0.1-1-0.3-2-1-2.7c-0.7-0.6-1.6-1-2.6-0.9c-0.6,0-1.2,0.1-1.8,0.4c-0.5,0.3-0.9,0.6-1.2,1.1
	c-0.3,0.4-0.5,1-0.5,1.5v5.9c0,0.2-0.1,0.4-0.2,0.5l-0.5,0.2l-0.6-0.2c-0.1-0.1-0.2-0.3-0.2-0.5v-9.4c0-0.2,0.1-0.4,0.2-0.6l0.6-0.2
	l0.5,0.2c0.1,0.2,0.2,0.4,0.2,0.6v0.7c0.4-0.5,1-0.9,1.6-1.2c0.6-0.3,1.3-0.4,2-0.4C239.5,107.7,240.4,107.9,241.2,108.2z"/>
<path fill="#1A2635" d="M247.6,105.3c-0.2-0.2-0.3-0.5-0.3-0.8c0-0.3,0.1-0.6,0.3-0.8c0.2-0.2,0.5-0.3,0.8-0.3
	c0.3,0,0.6,0.1,0.8,0.3c0.2,0.2,0.3,0.5,0.3,0.8c0,0.6-0.5,1.1-1.1,1.1l0,0C248.1,105.6,247.8,105.5,247.6,105.3z M247.8,118.4
	c-0.1-0.2-0.2-0.4-0.2-0.6v-9.4c0-0.2,0.1-0.4,0.2-0.6l0.6-0.2l0.5,0.2c0.1,0.2,0.2,0.4,0.2,0.6v9.4c0,0.2-0.1,0.4-0.2,0.6l-0.5,0.2
	L247.8,118.4z"/>
<path fill="#1A2635" d="M261.3,108.4c0.8,0.5,1.5,1.2,2,2c0.5,0.9,0.7,1.9,0.7,2.9v4.1c0,1-0.2,2-0.7,2.9c-0.5,0.8-1.2,1.5-2,2
	c-0.8,0.5-1.8,0.8-2.8,0.8c-0.9,0-1.9-0.2-2.7-0.6c-0.8-0.4-1.5-0.9-2-1.6c-0.1-0.1-0.2-0.3-0.2-0.5c0-0.2,0.1-0.4,0.3-0.5h0.8
	l0.3,0.2c0.4,0.5,0.9,0.9,1.5,1.2c0.7,0.3,1.4,0.4,2.1,0.4c1.5,0,2.8-0.8,3.5-2.1c0.4-0.7,0.5-1.5,0.5-2.3v-0.9
	c-0.4,0.8-1,1.4-1.7,1.8c-0.8,0.4-1.6,0.6-2.5,0.6c-1,0-1.9-0.2-2.8-0.7c-0.8-0.5-1.5-1.2-1.9-2c-0.5-0.9-0.7-1.9-0.7-2.9
	c0-1,0.2-2,0.7-2.9c0.5-0.8,1.2-1.5,2-2c1.8-0.9,3.9-0.9,5.7,0L261.3,108.4z M260.5,116.9c0.6-0.4,1.1-0.9,1.4-1.5
	c0.7-1.3,0.7-3,0-4.3c-0.3-0.6-0.8-1.1-1.4-1.5c-1.3-0.7-2.9-0.7-4.2,0c-0.6,0.4-1.1,0.9-1.4,1.5c-0.7,1.3-0.7,3,0,4.3
	c0.3,0.6,0.8,1.1,1.4,1.5C257.6,117.6,259.2,117.6,260.5,116.9z"/>
<path fill="#1A2635" d="M275.6,118c0,0.2-0.1,0.4-0.2,0.5l-0.5,0.2h-0.4l-0.3-0.3l-3.3-4.2l-3.4,4.3c-0.1,0.1-0.3,0.2-0.5,0.2
	l-0.5-0.2c-0.1-0.1-0.2-0.3-0.2-0.5c0-0.2,0.1-0.4,0.2-0.5l3.5-4.3l-3.3-4.2c-0.1-0.1-0.2-0.3-0.2-0.5c0-0.2,0.1-0.4,0.2-0.5
	l0.5-0.2l0.6,0.2l3.2,4.1l3.2-4c0.1-0.2,0.4-0.4,0.7-0.4l0.5,0.2c0.1,0.1,0.2,0.3,0.2,0.5c0,0.2-0.1,0.4-0.2,0.6l-3.3,4.1l3.4,4.4
	C275.6,117.7,275.6,117.8,275.6,118z"/>
<path fill="#1A2635" d="M278.9,105.3c-0.2-0.2-0.3-0.5-0.3-0.8c0-0.3,0.1-0.6,0.3-0.8c0.2-0.2,0.5-0.3,0.8-0.3
	c0.3,0,0.6,0.1,0.8,0.3c0.2,0.2,0.3,0.5,0.3,0.8c0,0.6-0.5,1.1-1.1,1.1l0,0C279.4,105.6,279.1,105.5,278.9,105.3z M279.1,118.4
	c-0.1-0.2-0.2-0.4-0.2-0.6v-9.4c0-0.2,0.1-0.4,0.2-0.6l0.6-0.2l0.5,0.2c0.1,0.2,0.2,0.4,0.2,0.6v9.4c0,0.2-0.1,0.4-0.2,0.6l-0.5,0.2
	L279.1,118.4z"/>
<path fill="#1A2635" d="M292.6,108.4c0.8,0.5,1.5,1.2,2,2c0.5,0.9,0.7,1.9,0.7,2.9v4.1c0,1-0.2,2-0.7,2.9c-0.5,0.8-1.2,1.5-2,2
	c-0.8,0.5-1.8,0.8-2.8,0.8c-0.9,0-1.9-0.2-2.7-0.6c-0.8-0.4-1.5-0.9-2-1.6c-0.1-0.1-0.2-0.3-0.2-0.5c0-0.2,0.1-0.4,0.3-0.5h0.8
	l0.3,0.2c0.4,0.5,0.9,0.9,1.5,1.2c0.7,0.3,1.4,0.4,2.1,0.4c1.5,0,2.8-0.8,3.5-2.1c0.4-0.7,0.5-1.5,0.5-2.3v-0.9
	c-0.4,0.8-1,1.4-1.7,1.8c-0.8,0.4-1.6,0.6-2.5,0.6c-1,0-1.9-0.2-2.8-0.7c-0.8-0.5-1.5-1.2-1.9-2c-0.5-0.9-0.7-1.9-0.7-2.9
	c0-1,0.2-2,0.7-2.9c0.5-0.8,1.2-1.5,2-2C288.8,107.4,290.9,107.4,292.6,108.4L292.6,108.4z M291.8,116.9c0.6-0.4,1.1-0.9,1.4-1.5
	c0.7-1.3,0.7-3,0-4.3c-0.3-0.6-0.8-1.1-1.4-1.5c-1.3-0.7-2.9-0.7-4.2,0c-0.6,0.4-1.1,0.9-1.4,1.5c-0.7,1.3-0.7,3,0,4.3
	c0.3,0.6,0.8,1.1,1.4,1.5C288.9,117.6,290.5,117.6,291.8,116.9z"/>
<path fill="#1A2635" d="M312.7,108.4c0.8,0.5,1.5,1.2,2,2c0.5,0.9,0.7,1.9,0.7,2.9v4.1c0,1-0.2,2-0.7,2.9c-0.5,0.8-1.2,1.5-2,2
	c-0.8,0.5-1.8,0.8-2.8,0.8c-0.9,0-1.9-0.2-2.7-0.6c-0.8-0.4-1.5-0.9-2-1.6c-0.1-0.1-0.2-0.3-0.2-0.5c0-0.2,0.1-0.4,0.3-0.5h0.8
	l0.3,0.2c0.4,0.5,0.9,0.9,1.5,1.2c0.7,0.3,1.4,0.4,2.1,0.4c1.5,0,2.8-0.8,3.5-2.1c0.4-0.7,0.5-1.5,0.5-2.3v-0.9
	c-0.4,0.8-1,1.4-1.7,1.8c-0.8,0.4-1.6,0.6-2.5,0.6c-1,0-1.9-0.2-2.8-0.7c-0.8-0.5-1.5-1.2-1.9-2c-0.5-0.9-0.7-1.9-0.7-2.9
	c0-1,0.2-2,0.7-2.9c0.5-0.8,1.2-1.5,2-2C308.9,107.4,311,107.4,312.7,108.4L312.7,108.4z M311.9,116.9c0.6-0.4,1.1-0.9,1.4-1.5
	c0.7-1.3,0.7-3,0-4.3c-0.3-0.6-0.8-1.1-1.4-1.5c-1.3-0.7-2.9-0.7-4.2,0c-0.6,0.4-1.1,0.9-1.4,1.5c-0.7,1.3-0.7,3,0,4.3
	c0.3,0.6,0.8,1.1,1.4,1.5C309,117.6,310.6,117.6,311.9,116.9z"/>
<path fill="#1A2635" d="M320.8,118.1c-0.8-0.5-1.5-1.2-2-2c-1-1.8-1-3.9,0-5.7c0.5-0.8,1.2-1.5,2-2c1.8-1,3.9-1,5.7,0
	c0.8,0.5,1.5,1.2,2,2c1,1.8,1,3.9,0,5.7c-0.5,0.8-1.2,1.5-2,2C324.7,119.1,322.6,119.1,320.8,118.1z M325.7,116.9
	c0.6-0.4,1.1-0.9,1.4-1.5c0.7-1.3,0.7-3,0-4.3c-0.3-0.6-0.8-1.1-1.4-1.5c-1.3-0.7-2.9-0.7-4.2,0c-0.6,0.4-1.1,0.9-1.5,1.5
	c-0.7,1.3-0.7,3,0,4.3c0.4,0.6,0.9,1.1,1.5,1.5C322.8,117.6,324.4,117.6,325.7,116.9z"/>
<path fill="#1A2635" d="M340,118.4c-0.6-0.2-1.1-0.5-1.5-1c-0.3-0.4-0.5-1-0.5-1.5c0-0.8,0.4-1.5,1-2c0.9-0.7,2-1.1,3.1-1.3
	c0.7-0.1,1.3-0.4,1.8-0.8c0.3-0.3,0.5-0.7,0.5-1.2c0-0.5-0.2-0.9-0.6-1.2c-0.5-0.3-1-0.4-1.6-0.4c-0.5,0-1,0.1-1.5,0.3
	c-0.5,0.2-0.9,0.4-1.2,0.8c-0.2,0.2-0.4,0.3-0.7,0.3h-0.3c-0.2-0.1-0.4-0.3-0.4-0.6c0-0.2,0.1-0.3,0.2-0.4c0.4-0.6,1-1,1.6-1.3
	c0.7-0.3,1.5-0.5,2.3-0.5c1,0,1.9,0.2,2.7,0.8c0.7,0.6,1.1,1.4,1,2.3c0,0.7-0.3,1.4-0.8,1.9c-0.7,0.6-1.6,1-2.6,1.2
	c-0.8,0.1-1.6,0.4-2.3,0.8c-0.4,0.3-0.7,0.7-0.7,1.2c0,0.5,0.2,0.9,0.6,1.2c0.6,0.3,1.2,0.4,1.9,0.4c1.1,0.1,2.3-0.3,3.1-1.1
	c0.1-0.2,0.4-0.3,0.6-0.3l0.4,0.2c0.2,0.1,0.3,0.3,0.3,0.5c0,0.2-0.1,0.4-0.2,0.5c-0.5,0.5-1.1,1-1.8,1.2c-0.8,0.3-1.6,0.4-2.4,0.4
	C341.3,118.8,340.6,118.6,340,118.4z"/>
<path fill="#1A2635" d="M357.9,108.4c0.8,0.5,1.5,1.2,2,2c0.5,0.9,0.7,1.8,0.7,2.8c0,1-0.2,1.9-0.7,2.8c-1,1.7-2.8,2.7-4.7,2.7
	c-0.8,0-1.7-0.2-2.4-0.6c-0.7-0.3-1.3-0.9-1.8-1.5v5.9c0,0.2-0.1,0.4-0.2,0.6l-0.6,0.2l-0.5-0.2c-0.1-0.2-0.2-0.4-0.2-0.6v-9.4
	c0-1,0.2-1.9,0.7-2.8c0.5-0.8,1.2-1.5,2-2C354,107.3,356.1,107.3,357.9,108.4L357.9,108.4z M357.1,116.9c0.6-0.4,1.1-0.9,1.5-1.5
	c0.7-1.3,0.7-3,0-4.3c-0.4-0.6-0.9-1.1-1.5-1.5c-0.6-0.4-1.4-0.6-2.1-0.6c-1.5,0-2.8,0.8-3.5,2.1c-0.3,0.6-0.5,1.4-0.5,2.1
	c0,0.2,0,0.3,0,0.5l0,0c0.1,1,0.6,1.9,1.3,2.6c0.7,0.7,1.7,1,2.7,1C355.7,117.3,356.5,117.2,357.1,116.9L357.1,116.9z"/>
<path fill="#1A2635" d="M366.1,118.1c-0.8-0.5-1.5-1.2-2-2c-1-1.8-1-3.9,0-5.7c0.5-0.8,1.2-1.5,2-2c1.8-1,3.9-1,5.7,0
	c0.8,0.5,1.5,1.2,2,2c1,1.8,1,3.9,0,5.7c-0.5,0.8-1.2,1.5-2,2C370,119.1,367.9,119.1,366.1,118.1z M371,116.9
	c0.6-0.4,1.1-0.9,1.4-1.5c0.7-1.3,0.7-3,0-4.3c-0.3-0.6-0.8-1.1-1.4-1.5c-1.3-0.7-2.9-0.7-4.2,0c-0.6,0.4-1.1,0.9-1.5,1.5
	c-0.7,1.3-0.7,3,0,4.3c0.4,0.6,0.9,1.1,1.5,1.5C368.1,117.6,369.7,117.6,371,116.9z"/>
<path fill="#1A2635" d="M392.9,108c0.1,0.2,0.2,0.4,0.2,0.6v9.4c0,0.2-0.1,0.4-0.2,0.6l-0.6,0.2l-0.6-0.2c-0.1-0.2-0.2-0.4-0.2-0.6
	v-0.7c-0.3,0.5-0.8,0.9-1.3,1.2c-0.5,0.3-1.1,0.4-1.7,0.4c-0.8,0-1.5-0.2-2.2-0.6c-0.6-0.4-1.1-1-1.4-1.7c-0.2,0.7-0.7,1.3-1.3,1.8
	c-0.6,0.4-1.3,0.6-2,0.6c-0.7,0-1.5-0.2-2.1-0.6c-0.6-0.4-1.1-0.9-1.4-1.6c-0.4-0.7-0.5-1.6-0.5-2.4v-5.8c0-0.2,0.1-0.4,0.2-0.6
	l0.6-0.2l0.6,0.2c0.1,0.2,0.2,0.4,0.2,0.6v5.8c0,0.8,0.2,1.6,0.7,2.2c0.5,0.5,1.2,0.8,1.9,0.8c0.7,0,1.5-0.3,2-0.8
	c0.6-0.6,0.8-1.4,0.8-2.2l0,0v-5.8c0-0.2,0.1-0.4,0.2-0.6l0.5-0.2l0.6,0.2c0.1,0.2,0.2,0.4,0.2,0.6v5.8c0,0.8,0.2,1.6,0.7,2.2
	c0.5,0.5,1.2,0.8,1.9,0.8c0.7,0,1.5-0.3,2-0.8c0.5-0.6,0.8-1.3,0.8-2.1v-5.9c0-0.2,0.1-0.4,0.2-0.6l0.6-0.2L392.9,108z"/>
<path fill="#1A2635" d="M404.4,108.3c0.8,0.5,1.4,1.1,1.8,1.9c0.4,0.9,0.6,1.8,0.6,2.8c0,0.2-0.1,0.4-0.2,0.5l-0.5,0.2H398
	c0.1,2.2,1.9,3.8,4.1,3.7c0,0,0,0,0,0l1.5-0.2l1.2-0.6l0.5-0.2l0.4,0.2c0.2,0.1,0.3,0.3,0.3,0.5c0,0.2-0.1,0.4-0.2,0.5
	c-0.5,0.4-1.1,0.7-1.7,0.9c-1.6,0.6-3.3,0.5-4.8-0.3c-0.8-0.5-1.5-1.2-2-2c-0.5-0.9-0.7-1.9-0.7-2.9c0-1,0.2-2,0.7-2.9
	c0.4-0.8,1.1-1.5,1.9-2c0.8-0.5,1.8-0.7,2.7-0.7C402.8,107.7,403.6,107.9,404.4,108.3z M399.3,109.9c-0.7,0.7-1.1,1.6-1.2,2.5h7.3
	c-0.1-0.9-0.4-1.8-1.1-2.5c-0.7-0.6-1.6-1-2.5-0.9C400.8,109,399.9,109.3,399.3,109.9L399.3,109.9z"/>
<path fill="#1A2635" d="M419.4,108c0.1,0.1,0.2,0.3,0.2,0.5v9.4c0,0.2-0.1,0.4-0.2,0.6l-0.6,0.2l-0.5-0.2c-0.1-0.2-0.2-0.4-0.2-0.6
	v-0.7c-0.4,0.5-1,0.9-1.6,1.2c-0.6,0.3-1.3,0.4-2,0.4c-0.9,0-1.7-0.2-2.5-0.6c-0.8-0.4-1.4-1-1.8-1.7c-0.4-0.8-0.6-1.8-0.6-2.7v-5.2
	c0-0.2,0.1-0.4,0.2-0.5l0.5-0.2l0.6,0.2c0.1,0.1,0.2,0.3,0.2,0.5v5.2c-0.1,1,0.3,2,1,2.7c0.7,0.6,1.6,1,2.6,0.9
	c0.6,0,1.2-0.1,1.8-0.4c0.5-0.2,1-0.6,1.3-1c0.3-0.4,0.5-1,0.5-1.5v-5.9c0-0.2,0.1-0.4,0.2-0.5l0.5-0.2L419.4,108z M412.9,106
	c-0.5-0.2-0.9-0.5-1.2-0.9c-0.3-0.4-0.5-0.8-0.5-1.3c0-0.2,0.1-0.4,0.2-0.6l0.5-0.2l0.5,0.2c0.1,0.2,0.2,0.4,0.2,0.6
	c0,0.4,0.2,0.7,0.6,0.9c0.9,0.5,2,0.5,2.9,0c0.4-0.2,0.6-0.5,0.6-0.9c0-0.2,0.1-0.4,0.2-0.6l0.5-0.2l0.5,0.2
	c0.1,0.2,0.2,0.4,0.2,0.6c0,0.5-0.2,0.9-0.5,1.3c-0.3,0.4-0.7,0.7-1.2,0.9C415.3,106.4,414,106.4,412.9,106L412.9,106z"/>
<path fill="#1A2635" d="M198.4,30.9c11.8,0,21.4,9.6,21.4,21.4s-9.6,21.4-21.4,21.4c-11.8,0-21.4-9.6-21.4-21.4c0,0,0,0,0,0
	C177,40.5,186.6,30.9,198.4,30.9 M198.4,22.9c-16.2,0-29.4,13.2-29.4,29.4s13.2,29.4,29.4,29.4s29.4-13.2,29.4-29.4c0,0,0,0,0,0
	C227.8,36.1,214.6,22.9,198.4,22.9"/>
<path fill="#1A2635" d="M263.6,30.9c11.8,0,21.4,9.6,21.4,21.4s-9.6,21.4-21.4,21.4c-11.8,0-21.4-9.6-21.4-21.4c0,0,0,0,0,0
	C242.2,40.5,251.8,30.9,263.6,30.9 M263.6,22.9c-16.2,0-29.4,13.2-29.4,29.4s13.2,29.4,29.4,29.4c16.2,0,29.4-13.2,29.4-29.4
	c0,0,0,0,0,0C293,36.1,279.8,22.9,263.6,22.9"/>
<path fill="#1A2635" d="M350.4,80.8c-1.1,0-2.2-0.5-2.9-1.3l-38.4-41.6v38.7c0,2.2-1.8,4-4,4s-4-1.8-4-4v-49c0-2.2,1.8-4,4.1-3.9
	c1.1,0,2.1,0.5,2.8,1.2l38.3,41.6V27.6c0-2.2,1.8-4,4-4s4,1.8,4,4v49.2c0,1.6-1,3.1-2.5,3.7L350.4,80.8z"/>
<path fill="#1A2635" d="M162.8,81.1H124c-2.2,0-4-1.8-4-4V27.9c0-2.2,1.8-4,4-4s4,1.8,4,4v45.2h34.8c2.2,0,4,1.8,4,4
	S165,81.1,162.8,81.1z"/>
<path fill="#1A2635" d="M288.2,80.8c-2.2,0-4-1.8-4-4V58.3c0-2.2,1.8-4,4-4s4,1.8,4,4v18.5C292.2,79,290.4,80.8,288.2,80.8z"/>
<path fill="#1A2635" d="M390.8,55.7c-1,0-2-0.4-2.8-1.1l-24.9-24c-1.7-1.5-1.8-4-0.4-5.6c1.5-1.7,4-1.8,5.6-0.4
	c0.1,0.1,0.2,0.1,0.2,0.2l24.9,24c1.6,1.5,1.7,4.1,0.1,5.7C392.9,55.3,391.8,55.7,390.8,55.7L390.8,55.7z"/>
<path fill="#1A2635" d="M390.8,55.7c-2.2,0-4-1.7-4-4c0-1.1,0.4-2.2,1.2-2.9l24.9-24c1.5-1.6,4.1-1.6,5.7-0.1s1.6,4.1,0.1,5.7
	c-0.1,0.1-0.2,0.2-0.2,0.2l-24.9,24C392.8,55.3,391.8,55.7,390.8,55.7z"/>
<path fill="#1A2635" d="M390.8,80.8c-2.2,0-4-1.8-4-4V50.3c0-2.2,1.8-4,4-4s4,1.8,4,4v26.5C394.8,79,393,80.8,390.8,80.8z"/>
<path fill="#FFFFFF" d="M85.6,36.1c-1.7-1.7-3.6-3.3-5.6-4.8C67,35.5,55.9,44.4,51.6,54c-4.3-9.4-15.9-19.6-28.2-22.4l-1.7,0.9
	c-1.4,1.1-2.7,2.3-3.9,3.5C9.4,44.3,4.5,55.6,4.3,67.4c0,0.1,0,0.3,0,0.4c0.1,7.3,2,14.5,5.7,20.8l0.8,1.3l0.5,0.7l5.5,7.2l1.2,1.4
	l0.6,0.6l1,0.9l0.5,0.4h0.1l3.3,3.1l2.9,2.6c7,6.2,18.1,15.6,25.3,21.8c7.5-6.5,19-16.4,26.6-23.2l1.2-1.1l5-4.6l0.3-0.2l1-1h0.1
	l0.2-0.2C94.4,89.5,99,78.6,99,67.8C98.9,55.9,94.1,44.5,85.6,36.1"/>
<path fill="#1297CC" d="M77.1,50c-9.3,0.3-16.6,8-16.3,17.3c0.3,9.3,8,16.6,17.3,16.3c9-0.3,16.2-7.6,16.3-16.7
	C94.3,57.5,86.5,49.9,77.1,50C77.1,50,77.1,50,77.1,50"/>
<path fill="#1A2635" d="M77.1,54.7c-6.7,0.2-12.1,5.8-11.9,12.5S71,79.3,77.7,79.1c6.6-0.2,11.9-5.6,11.9-12.2
	C89.5,60.1,83.9,54.6,77.1,54.7"/>
<path fill="#FFFFFF" d="M81.2,63.3c1.8,1.8,4.6,0.5,6.9-2.1c3.7-4.4,3-5.7,1.6-7s-2.8-1.9-6.9,2.1C80.4,58.7,79.5,61.5,81.2,63.3"/>
<path fill="#1297CC" d="M27.4,50c-9.3,0-16.8,7.5-16.8,16.8s7.5,16.8,16.8,16.8s16.9-7.5,16.9-16.8S36.7,50,27.4,50"/>
<path fill="#1A2635" d="M27.4,54.7c-6.7,0-12.2,5.5-12.2,12.2c0,6.7,5.5,12.2,12.2,12.2c0,0,0,0,0,0c6.7,0,12.2-5.5,12.2-12.2
	C39.6,60.2,34.1,54.7,27.4,54.7"/>
<path fill="#FFFFFF" d="M31.5,63.3c1.8,1.8,4.6,0.5,6.9-2.1c3.7-4.4,3-5.7,1.6-7s-2.8-1.9-6.9,2.1C30.7,58.7,29.8,61.5,31.5,63.3"/>
<path fill="#38C5E5" d="M87.3,32.8c-19.8-19.3-51.5-19.3-71.3,0c-9.7,9.1-15.2,21.7-15.2,35c0,13,6.1,26.1,16.8,35.8
	c0.9,1,9.7,9.1,18.1,16.8l16,14.6l15.9-14.7c9.4-8.7,19.6-18.2,20.6-19.3c9.1-9.7,14.2-21.5,14.2-33.3c0-13.3-5.5-25.9-15.2-35
	 M4.3,67.4c0.2-11.8,5.1-23,13.5-31.3c1.2-1.2,2.5-2.4,3.9-3.5l1.7-0.9c12.3,2.8,23.9,13,28.2,22.4C55.9,44.4,67,35.5,80,31.3
	c2,1.5,3.8,3.1,5.5,4.8C94,44.5,98.9,55.9,99,67.8c0,5.7-1.3,11.3-3.6,16.5c0,0-6,12.7-17.8,12.7c-6.2-0.2-12.2-2.3-17.1-6l-9-11.2
	l-9,11.3c0,0-5.1,6-15.8,6C14.5,97,8.7,84.9,7.6,83.7c-2.1-5-3.3-10.4-3.3-15.9C4.3,67.7,4.3,67.5,4.3,67.4"/>
<path fill="#38C5E5" d="M51.7,135.8l-0.4-0.4l-15.9-14.5c-11.3-10.3-17.4-16-18.2-16.9c-10.8-9.8-17-23-17-36.2
	c0.1-13.4,5.6-26.2,15.4-35.4c20.1-19.5,52-19.5,72.1,0l0,0c9.8,9.2,15.3,22,15.4,35.4c0,11.9-5.1,23.9-14.3,33.7
	c-0.8,0.9-7.8,7.4-20.7,19.3l-16,14.6L51.7,135.8z M51.7,19c-13.1,0-25.8,5.1-35.2,14.2c-9.5,9-14.9,21.4-15,34.5
	c0,12.8,6.1,25.7,16.6,35.4c0.8,0.9,7.1,6.7,18.1,16.8l15.5,14.2l15.5-14.3c16-14.8,20-18.6,20.6-19.3c9.1-9.6,14-21.2,14-32.9
	c-0.1-13.1-5.5-25.5-15-34.5C77.4,24,64.8,19,51.7,19z M26.7,97.7c-10.8,0-16.6-9.1-18.9-12.6l-0.7-1v-0.2
	c-2.2-5.1-3.4-10.6-3.4-16.1v-0.4c0.2-12,5.1-23.4,13.7-31.8c1.3-1.3,2.6-2.5,4-3.6l1.8-1h0.4c12.5,3,23.5,13.1,28,21.7
	c4.7-9.4,15.7-17.9,28.2-21.9h0.3l0.2,0.2c2,1.4,3.9,3,5.7,4.7c8.6,8.5,13.5,20,13.6,32.1c0,5.8-1.2,11.5-3.6,16.8
	c-0.1,0.1-6.3,13.1-18.3,13.1c-6.3-0.1-12.5-2.3-17.5-6.1H60l-8.5-10.9l-8.6,10.7C42.7,91.7,37.5,97.6,26.7,97.7L26.7,97.7z
	 M8.2,83.4l0.7,1.1c2.1,3.3,7.7,12,17.8,12S42,90.7,42,90.7l9.5-11.9l9.3,11.8c0.6,0.5,7.6,5.8,16.7,5.8c11.3,0,17.2-12.2,17.3-12.4
	c2.3-5.1,3.5-10.7,3.5-16.3C98.2,56,93.5,44.8,85.2,36.5c-1.7-1.6-3.4-3.1-5.3-4.5c-12.6,4.1-23.5,12.8-27.7,22.3l-0.5,1.2l-0.6-1.2
	c-3.9-8.5-14.9-19-27.6-22L22,33c-1.3,1.1-2.6,2.2-3.8,3.4c-8.3,8.2-13.1,19.3-13.3,31v0.4C5,73.2,6.1,78.5,8.2,83.4z"/>
<polygon fill="#1A2635" points="42.5,90 51.8,101.2 60.6,90 51.6,78.7 "/>
<path fill="#1297CC" d="M95.7,27.5h-0.2c-8.8,0.1-19.8,3.8-29,8.5c-5.5,2.8-13.2,9.8-14.9,11.3c-1.7-1.6-9.4-8.5-14.9-11.3
	c-9.2-4.6-20.2-8.4-29-8.5H7.6c-1.7-0.1-3.1,1.2-3.3,2.9c0.2,1.7,1.6,3,3.3,2.9l0,0c8.6,0.4,17,2.5,24.8,6.2
	c13.5,6.6,18,14.4,19.2,16.8l0,0c1.2-2.4,5.8-10.2,19.2-16.8c7.8-3.7,16.2-5.8,24.8-6.2l0,0c1.7,0.1,3.2-1.1,3.4-2.8
	c-0.2-1.7-1.6-3-3.3-2.9"/>
<path fill="#1297CC" d="M95.7,26.9h-0.2c-8.8,0.1-19.8,3.8-29,8.5c-5.5,2.7-13.2,9.7-14.9,11.3c-1.7-1.6-9.4-8.5-14.9-11.3
	c-9.2-4.6-20.2-8.4-29-8.5H7.6c-1.7-0.1-3.1,1.2-3.3,2.9c0.2,1.7,1.6,3,3.3,2.9l0,0c8.6,0.4,17,2.6,24.8,6.3
	c13.5,6.6,18,14.4,19.2,16.8l0,0c1.2-2.4,5.8-10.2,19.2-16.8c7.8-3.7,16.2-5.8,24.8-6.2l0,0c1.8,0.1,3.3-1.2,3.4-3c0,0,0,0,0,0
	C98.8,28.1,97.4,26.8,95.7,26.9"/>
</svg>
