<?xml version="1.0" encoding="utf-8"?>
<!-- Generator: Adobe Illustrator 22.1.0, SVG Export Plug-In . SVG Version: 6.00 Build 0)  -->
<svg version="1.1" id="Слой_1" xmlns="http://www.w3.org/2000/svg" xmlns:xlink="http://www.w3.org/1999/xlink" x="0px" y="0px"
	 viewBox="0 0 1254.4 128" style="enable-background:new 0 0 1254.4 128;" xml:space="preserve">
<style type="text/css">
	.st0{fill:#3E9B55;}
	.st1{fill:#252223;}
</style>
<g>
	<path class="st0" d="M254.6,45.4c-2-14.1-6-26.2-18.1-34.3c-1-1-2-2-3-2c0,0,0,0-1,0C222.4,2,210.3,2,198.2,5
		c-12.1,3-22.2,8.1-31.2,15.1c-5,4-10.1,8.1-14.1,12.1c-7.1,6-12.1,14.1-19.1,21.2c-3,3-7.1,6-12.1,6L20.8,0c-1,2-2,4-3,6
		c-5,9.1-9.1,18.1-12.1,28.2c-4,15.1-7.1,31.2-5,47.4c2,11.1,5,21.2,12.1,29.2c3,3,6,6,10.1,8.1c11.1,7.1,23.2,7.1,35.3,4
		c12.1-3,22.2-8.1,31.2-15.1c5-4,10.1-8.1,14.1-12.1c7.1-6,12.1-14.1,19.1-21.2c3-3,7.1-6,12.1-6l99.8,59.5c1-2,2-5,4-7.1
		c5-9.1,8.1-18.1,11.1-27.2C254.6,77.6,257.6,61.5,254.6,45.4z"/>
	<g>
		<polygon class="st1" points="376.6,87.7 375.6,87.7 339.3,16.1 323.2,16.1 323.2,108.9 330.2,108.9 330.2,33.3 331.2,33.3 
			370.5,108.9 373.6,108.9 411.9,32.3 411.9,32.3 411.9,108.9 428,108.9 428,16.1 411.9,16.1 		"/>
		<rect x="459.2" y="16.1" class="st1" width="16.1" height="93.7"/>
		<path class="st1" d="M556,68.5c-2-2-5-4-8.1-6c-3-2-6-4-10.1-5c-3-2-6-3-10.1-5c-3-2-6-3-8.1-5s-4-4-6-6c-2-3-2-5-2-7.1
			c0-2,0-3,1-5c1-2,2-3,3-4c1-1,3-2,5-3c2-1,5-1,8.1-1s6,0,9.1,1c3,1,5,2,7.1,4c2,2,4,4,5,6c1,2,3,5,4,8.1l8.1-4
			c-2-7.1-6-12.1-11.1-16.1s-12.1-6-21.2-6c-5,0-9.1,1-13.1,2c-4,1-7.1,3-9.1,5c-3,2-5,5-6,8.1c-1,3-2,6-2,10.1s1,7.1,2,9.1
			c1,3,3,5,6,7.1c2,2,5,4,8.1,6c3,2,6,4,9.1,5c3,2,6,3,9.1,5s6,3,8.1,5c2,2,4,4,6,6c1,2,2,5,2,8.1c0,2-1,4-2,6c-1,2-2,3-4,5
			c-2,1-4,2-6,3c-2,1-5,1-7.1,1c-3,0-6,0-9.1-1c-3-1-5-2-7.1-4c-2-2-4-4-6-6c-2-2-3-5-4-8.1l-8.1,3c1,3,3,6,5,9.1c2,3,4,5,7.1,7.1
			c3,2,6,3,9.1,4c3,1,7.1,1,12.1,1s10.1-1,14.1-2c4-1,8.1-3,10.1-6c3-2,5-5,6-8.1c1-3,2-7.1,2-10.1c0-3-1-6-2-9.1
			C560,72.6,558,70.6,556,68.5z"/>
		<polygon class="st1" points="576.1,22.2 610.4,22.2 610.4,108.9 625.5,108.9 625.5,22.2 659.8,22.2 659.8,16.1 576.1,16.1 		"/>
		<polygon class="st1" points="677.9,108.9 742.4,108.9 742.4,102.8 694.1,102.8 694.1,61.5 726.3,61.5 726.3,55.4 694.1,55.4 
			694.1,22.2 742.4,22.2 742.4,16.1 677.9,16.1 		"/>
		<path class="st1" d="M817,60.5c3-1,5-3,7.1-5c2-2,4-4,5-7.1c1-3,2-5,2-8.1s-1-7.1-2-10.1c-1-3-4-5-6-8.1c-3-2-6-4-10.1-5
			s-9.1-2-15.1-2h-34.3v93.7h16.1V65.5h11.1l32.3,44.3h18.1l-34.3-45.4C811,63.5,814,61.5,817,60.5z M798.9,59.5c-3,1-6,1-10.1,1
			h-9.1V22.2h14.1c3,0,5,0,8.1,1c2,1,4,2,6,4c2,2,3,4,4,6s1,5,1,8.1c0,3-1,6-2,8.1c-1,2-3,5-5,6C803.9,56.4,801.9,58.5,798.9,59.5z"
			/>
		<path class="st1" d="M910.8,32.3c3-4,8.1-6,12.1-8.1c5-2,10.1-3,15.1-3c7.1-1,12.1,1,17.1,4c5,4,9.1,9.1,13.1,16.1l7.1-4
			c-2-3-4-6-7.1-9.1c-3-3-6-5-9.1-8.1c-3-2-7.1-4-11.1-5s-9.1-2-14.1-2s-10.1,1-15.1,2c-5,1-9.1,3-13.1,5s-7.1,5-10.1,8.1
			c-3,3-6,6-8.1,10.1c-2,4-3,8.1-4,12.1s-2,8.1-2,13.1c0,4,1,9.1,2,13.1c1,4,3,8.1,5,11.1c2,4,5,7.1,8.1,10.1c3,3,6,6,10.1,8.1
			s8.1,4,12.1,5c5,1,9.1,2,14.1,2s10.1-1,14.1-2s8.1-3,12.1-5c3-2,6-5,9.1-8.1c3-3,5-6,7.1-9.1l-7.1-6c-1,3-3,5-5,8.1
			c-2,3-4,5-7.1,7.1s-5,4-8.1,5c-3,1-6,2-9.1,2c-5,0-11.1-1-15.1-3c-5-2-9.1-5-12.1-8.1c-3-4-6-8.1-8.1-13.1c-2-5-3-11.1-3-17.1
			c0-7.1,1-12.1,3-18.1C904.7,40.3,907.7,35.3,910.8,32.3z"/>
		<path class="st1" d="M1033.7,14.1l-45.4,95.7h8.1l15.1-31.2h40.3l14.1,31.2h16.1l-44.3-95.7C1037.7,14.1,1033.7,14.1,1033.7,14.1z
			 M1013.6,71.6l17.1-37.3l17.1,37.3C1047.8,71.6,1013.6,71.6,1013.6,71.6z"/>
		<path class="st1" d="M1146.6,68.5c-2-2-5-4-8.1-6c-3-2-6-4-10.1-5c-3-2-6-3-10.1-5c-3-2-6-3-8.1-5s-4-4-6-6c-2-2-2-4-2-7.1
			c0-2,0-3,1-5c1-2,2-3,3-4c1-1,3-2,5-3s5-1,8.1-1s6,0,9.1,1c3,1,5,2,7.1,4s4,4,5,6c1,2,3,5,4,8.1l8.1-4c-2-7.1-6-12.1-11.1-16.1
			c-5-4-12.1-6-21.2-6c-5,0-9.1,1-13.1,2c-4,1-7.1,3-9.1,5c-3,2-5,5-6,8.1c-1,3-2,6-2,10.1s1,7.1,2,9.1c1,3,3,5,6,7.1c2,2,5,4,8.1,6
			s6,4,9.1,5c3,2,6,3,9.1,5c3,2,6,3,8.1,5s4,4,6,6c1,2,2,5,2,8.1c0,2-1,4-2,6c-1,2-2,3-4,5c-2,1-4,2-6,3c-2,1-5,1-7.1,1
			c-3,0-6,0-9.1-1c-3-1-5-2-7.1-4s-4-4-6-6c-2-2-3-5-4-8.1l-8.1,3c1,3,3,6,5,9.1c2,3,4,5,7.1,7.1c3,2,6,3,9.1,4s7.1,1,12.1,1
			c5,0,10.1-1,14.1-2s8.1-3,10.1-6c3-2,5-5,6-8.1c1-3,2-7.1,2-10.1c0-3-1-6-2-9.1C1151.6,72.6,1149.6,70.6,1146.6,68.5z"/>
		<polygon class="st1" points="1239.3,16.1 1239.3,58.5 1191.9,58.5 1191.9,16.1 1176.8,16.1 1176.8,108.9 1191.9,108.9 
			1191.9,64.5 1239.3,64.5 1239.3,108.9 1254.4,108.9 1254.4,16.1 		"/>
	</g>
</g>
</svg>
