<svg width="150" height="26" fill="none" xmlns="http://www.w3.org/2000/svg"><mask id="a" maskUnits="userSpaceOnUse" x="50" y="5" width="15" height="15"><path fill-rule="evenodd" clip-rule="evenodd" d="M59.952 15.499c.667-.707 1.001-1.615 1.001-2.727 0-1.111-.329-2.015-.984-2.71-.655-.693-1.494-1.04-2.516-1.04-.997 0-1.828.35-2.492 1.053-.663.702-.995 1.601-.995 2.697 0 1.128.328 2.04.984 2.74.656.698 1.486 1.047 2.491 1.047 1.006 0 1.842-.353 2.51-1.06zm.854-8.622a6.579 6.579 0 012.488 2.49 6.753 6.753 0 01.893 3.394c0 1.222-.3 2.365-.9 3.429a6.53 6.53 0 01-2.452 2.495c-1.035.6-2.176.899-3.422.899-1.836 0-3.402-.66-4.7-1.982-1.297-1.323-1.946-2.928-1.946-4.818 0-2.025.733-3.712 2.2-5.062C54.251 6.548 55.73 5.96 57.4 5.96c1.207 0 2.343.306 3.405.917z" fill="#fff"/></mask><g mask="url(#a)"><path fill-rule="evenodd" clip-rule="evenodd" d="M48.729 21.647h17.496V3.897H48.73v17.75z" fill="#3CAD2B"/></g><mask id="b" maskUnits="userSpaceOnUse" x="79" y="5" width="15" height="15"><path fill-rule="evenodd" clip-rule="evenodd" d="M83.173 11.153h6.963a3.256 3.256 0 00-1.254-1.764c-.625-.452-1.35-.678-2.175-.678-.894 0-1.68.254-2.356.762-.424.318-.817.877-1.178 1.68zm3.376-5.193c2.015 0 3.654.653 4.916 1.96 1.263 1.305 1.894 3.03 1.894 5.173l-.012.62H83.031c.15.921.548 1.654 1.195 2.197.647.544 1.472.815 2.476.815 1.2 0 2.23-.424 3.094-1.273l2.705 1.286c-.675.968-1.482 1.684-2.424 2.15-.94.463-2.058.696-3.352.696-2.007 0-3.642-.642-4.905-1.924-1.262-1.28-1.893-2.887-1.893-4.816 0-1.977.629-3.62 1.887-4.925 1.259-1.306 2.837-1.96 4.735-1.96z" fill="#fff"/></mask><g mask="url(#b)"><path fill-rule="evenodd" clip-rule="evenodd" d="M77.889 21.647h17.508V3.897H77.89v17.75z" fill="#3CAD2B"/></g><mask id="c" maskUnits="userSpaceOnUse" x="108" y="6" width="14" height="14"><path fill-rule="evenodd" clip-rule="evenodd" d="M118.326 6.293h3.255l-5.446 12.958h-2.082l-5.458-12.958h3.272l3.233 7.646 3.226-7.646z" fill="#fff"/></mask><g mask="url(#c)"><path fill-rule="evenodd" clip-rule="evenodd" d="M106.557 21.314h17.062V4.23h-17.062v17.085z" fill="#3CAD2B"/></g><mask id="d" maskUnits="userSpaceOnUse" x="121" y="5" width="15" height="15"><path fill-rule="evenodd" clip-rule="evenodd" d="M124.828 11.153h6.963a3.257 3.257 0 00-1.255-1.764c-.624-.452-1.348-.678-2.174-.678-.895 0-1.68.254-2.356.762-.424.318-.817.877-1.178 1.68zm3.376-5.193c2.015 0 3.654.653 4.916 1.96 1.262 1.305 1.894 3.03 1.894 5.173l-.012.62h-10.316c.149.921.548 1.653 1.195 2.197.646.544 1.471.815 2.475.815 1.2 0 2.231-.424 3.094-1.273l2.705 1.286c-.674.968-1.482 1.684-2.423 2.15-.941.463-2.058.696-3.352.696-2.008 0-3.643-.642-4.905-1.923-1.263-1.282-1.893-2.889-1.893-4.818 0-1.976.628-3.618 1.887-4.924 1.258-1.306 2.837-1.96 4.735-1.96z" fill="#fff"/></mask><g mask="url(#d)"><path fill-rule="evenodd" clip-rule="evenodd" d="M119.543 21.647h17.509V3.897h-17.509v17.75z" fill="#3CAD2B"/></g><mask id="e" maskUnits="userSpaceOnUse" x="136" y="5" width="14" height="15"><path fill-rule="evenodd" clip-rule="evenodd" d="M145.659 15.499c.667-.707 1.001-1.615 1.001-2.727 0-1.111-.328-2.015-.984-2.71-.655-.693-1.494-1.04-2.516-1.04-.997 0-1.828.35-2.492 1.053-.663.702-.995 1.601-.995 2.697 0 1.128.328 2.04.984 2.74.656.697 1.486 1.047 2.492 1.047 1.005 0 1.841-.353 2.51-1.06zm3.342-6.132a6.758 6.758 0 01.893 3.394 6.865 6.865 0 01-.899 3.429 6.525 6.525 0 01-2.453 2.494c-1.035.6-2.176.9-3.422.9-1.835 0-3.402-.661-4.699-1.982-1.298-1.323-1.947-2.928-1.947-4.818 0-2.025.733-3.712 2.199-5.062 1.286-1.174 2.765-1.762 4.434-1.762 1.208 0 2.343.306 3.406.917a6.577 6.577 0 012.488 2.49z" fill="#fff"/></mask><g mask="url(#e)"><path fill-rule="evenodd" clip-rule="evenodd" d="M134.435 21.647h17.497V3.897h-17.497v17.75z" fill="#3CAD2B"/></g><mask id="f" maskUnits="userSpaceOnUse" x="65" y="5" width="14" height="15"><path fill-rule="evenodd" clip-rule="evenodd" d="M72.066 5.986c3.53 0 6.401 2.908 6.401 6.482v6.776h-3.129v-6.776c0-1.828-1.468-3.314-3.272-3.314-1.804 0-3.272 1.486-3.272 3.314v6.776h-3.129v-6.776c0-3.574 2.872-6.482 6.401-6.482z" fill="#fff"/></mask><g mask="url(#f)"><path fill-rule="evenodd" clip-rule="evenodd" d="M63.627 21.308h16.878V3.922H63.627v17.385z" fill="#3CAD2B"/></g><mask id="g" maskUnits="userSpaceOnUse" x="26" y="5" width="24" height="15"><path fill-rule="evenodd" clip-rule="evenodd" d="M42.906 5.986c3.53 0 6.4 2.908 6.4 6.482v6.776h-3.128v-6.776c0-1.828-1.468-3.314-3.272-3.314-1.804 0-3.272 1.486-3.272 3.314v6.776h-3.189v-6.776c0-1.828-1.467-3.314-3.271-3.314-1.805 0-3.273 1.486-3.273 3.314v6.776h-3.129v-6.776c0-3.574 2.872-6.482 6.402-6.482 1.946 0 3.69.886 4.866 2.278a6.356 6.356 0 014.866-2.278z" fill="#fff"/></mask><g mask="url(#g)"><path fill-rule="evenodd" clip-rule="evenodd" d="M24.734 21.308h26.61V3.922h-26.61v17.385z" fill="#3CAD2B"/></g><mask id="h" maskUnits="userSpaceOnUse" x="94" y="6" width="14" height="20"><path fill-rule="evenodd" clip-rule="evenodd" d="M104.465 8.829V6.303h3.128V19.56h-.002c-.039 3.539-2.894 6.407-6.399 6.407v-3.169c1.805 0 3.272-1.485 3.273-3.312v-.84a6.304 6.304 0 01-3.273.914c-3.53 0-6.4-2.908-6.4-6.482V6.303h3.128v6.776c0 1.827 1.468 3.313 3.272 3.313 1.805 0 3.273-1.486 3.273-3.313v-4.25z" fill="#fff"/></mask><g mask="url(#h)"><path fill-rule="evenodd" clip-rule="evenodd" d="M92.754 28.031h16.877V4.24H92.754v23.792z" fill="#3CAD2B"/></g><mask id="i" maskUnits="userSpaceOnUse" x="7" y="5" width="16" height="15"><path fill-rule="evenodd" clip-rule="evenodd" d="M12.428 5.375H22.63l-5.115 13.704H7.313l5.115-13.704z" fill="#fff"/></mask><g mask="url(#i)"><path fill-rule="evenodd" clip-rule="evenodd" d="M5.274 21.142h19.393V3.312H5.274v17.83z" fill="#915FFF"/></g><mask id="j" maskUnits="userSpaceOnUse" x="0" y="0" width="18" height="20"><path fill-rule="evenodd" clip-rule="evenodd" d="M10.512.33l6.979 18.748H7.328L.348.33h10.164z" fill="#fff"/></mask><g mask="url(#j)"><path fill-rule="evenodd" clip-rule="evenodd" d="M-1.69 21.142h21.22V-1.734H-1.69v22.876z" fill="#3CAD2B"/></g><mask id="k" maskUnits="userSpaceOnUse" x="7" y="5" width="11" height="15"><path fill-rule="evenodd" clip-rule="evenodd" d="M7.32 19.058l5.09-13.632 5.08 13.652H7.329l-.008-.02z" fill="#fff"/></mask><g mask="url(#k)"><path fill-rule="evenodd" clip-rule="evenodd" d="M5.282 21.142H19.53V3.362H5.282v17.78z" fill="#2C608A"/></g></svg>