<svg xmlns="http://www.w3.org/2000/svg" viewBox="0 0 1254.4 128"><path d="M254.6 45.4c-2-14.1-6-26.2-18.1-34.3-1-1-2-2-3-2h-1C222.4 2 210.3 2 198.2 5 186.1 8 176 13.1 167 20.1c-5 4-10.1 8.1-14.1 12.1-7.1 6-12.1 14.1-19.1 21.2-3 3-7.1 6-12.1 6L20.8 0l-3 6c-5 9.1-9.1 18.1-12.1 28.2-4 15.1-7.1 31.2-5 47.4 2 11.1 5 21.2 12.1 29.2 3 3 6 6 10.1 8.1 11.1 7.1 23.2 7.1 35.3 4 12.1-3 22.2-8.1 31.2-15.1 5-4 10.1-8.1 14.1-12.1 7.1-6 12.1-14.1 19.1-21.2 3-3 7.1-6 12.1-6l99.8 59.5c1-2 2-5 4-7.1 5-9.1 8.1-18.1 11.1-27.2 5-16.1 8-32.2 5-48.3z" fill="#3e9b55"/><path d="M376.6 87.7h-1l-36.3-71.6h-16.1v92.8h7V33.3h1l39.3 75.6h3.1l38.3-76.6v76.6H428V16.1h-16.1zm82.6-71.6h16.1v93.7h-16.1zM556 68.5c-2-2-5-4-8.1-6-3-2-6-4-10.1-5-3-2-6-3-10.1-5-3-2-6-3-8.1-5s-4-4-6-6c-2-3-2-5-2-7.1 0-2 0-3 1-5s2-3 3-4 3-2 5-3 5-1 8.1-1 6 0 9.1 1c3 1 5 2 7.1 4 2 2 4 4 5 6s3 5 4 8.1l8.1-4c-2-7.1-6-12.1-11.1-16.1s-12.1-6-21.2-6c-5 0-9.1 1-13.1 2s-7.1 3-9.1 5c-3 2-5 5-6 8.1-1 3-2 6-2 10.1s1 7.1 2 9.1c1 3 3 5 6 7.1 2 2 5 4 8.1 6 3 2 6 4 9.1 5 3 2 6 3 9.1 5s6 3 8.1 5l6 6c1 2 2 5 2 8.1 0 2-1 4-2 6s-2 3-4 5l-6 3c-2 1-5 1-7.1 1-3 0-6 0-9.1-1-3-1-5-2-7.1-4l-6-6c-2-2-3-5-4-8.1l-8.1 3c1 3 3 6 5 9.1 2 3 4 5 7.1 7.1 3 2 6 3 9.1 4 3 1 7.1 1 12.1 1s10.1-1 14.1-2 8.1-3 10.1-6c3-2 5-5 6-8.1 1-3 2-7.1 2-10.1s-1-6-2-9.1c0-3.1-2-5.1-4-7.2zm20.1-46.3h34.3v86.7h15.1V22.2h34.3v-6.1h-83.7zm101.8 86.7h64.5v-6.1h-48.3V61.5h32.2v-6.1h-32.2V22.2h48.3v-6.1h-64.5zM817 60.5c3-1 5-3 7.1-5 2-2 4-4 5-7.1 1-3 2-5 2-8.1s-1-7.1-2-10.1-4-5-6-8.1c-3-2-6-4-10.1-5s-9.1-2-15.1-2h-34.3v93.7h16.1V65.5h11.1l32.3 44.3h18.1l-34.3-45.4c4.1-.9 7.1-2.9 10.1-3.9zm-18.1-1c-3 1-6 1-10.1 1h-9.1V22.2h14.1c3 0 5 0 8.1 1 2 1 4 2 6 4s3 4 4 6 1 5 1 8.1c0 3-1 6-2 8.1-1 2-3 5-5 6s-4 3.1-7 4.1zm111.9-27.2c3-4 8.1-6 12.1-8.1 5-2 10.1-3 15.1-3 7.1-1 12.1 1 17.1 4 5 4 9.1 9.1 13.1 16.1l7.1-4c-2-3-4-6-7.1-9.1-3-3-6-5-9.1-8.1-3-2-7.1-4-11.1-5s-9.1-2-14.1-2-10.1 1-15.1 2-9.1 3-13.1 5-7.1 5-10.1 8.1c-3 3-6 6-8.1 10.1-2 4-3 8.1-4 12.1s-2 8.1-2 13.1c0 4 1 9.1 2 13.1s3 8.1 5 11.1c2 4 5 7.1 8.1 10.1 3 3 6 6 10.1 8.1s8.1 4 12.1 5c5 1 9.1 2 14.1 2s10.1-1 14.1-2 8.1-3 12.1-5c3-2 6-5 9.1-8.1 3-3 5-6 7.1-9.1l-7.1-6c-1 3-3 5-5 8.1-2 3-4 5-7.1 7.1s-5 4-8.1 5c-3 1-6 2-9.1 2-5 0-11.1-1-15.1-3-5-2-9.1-5-12.1-8.1-3-4-6-8.1-8.1-13.1-2-5-3-11.1-3-17.1 0-7.1 1-12.1 3-18.1 1.1-5.2 4.1-10.2 7.2-13.2zm122.9-18.2l-45.4 95.7h8.1l15.1-31.2h40.3l14.1 31.2h16.1l-44.3-95.7h-4zm-20.1 57.5l17.1-37.3 17.1 37.3h-34.2zm133-3.1c-2-2-5-4-8.1-6-3-2-6-4-10.1-5-3-2-6-3-10.1-5-3-2-6-3-8.1-5s-4-4-6-6-2-4-2-7.1c0-2 0-3 1-5s2-3 3-4 3-2 5-3 5-1 8.1-1 6 0 9.1 1c3 1 5 2 7.1 4s4 4 5 6 3 5 4 8.1l8.1-4c-2-7.1-6-12.1-11.1-16.1-5-4-12.1-6-21.2-6-5 0-9.1 1-13.1 2s-7.1 3-9.1 5c-3 2-5 5-6 8.1-1 3-2 6-2 10.1s1 7.1 2 9.1c1 3 3 5 6 7.1 2 2 5 4 8.1 6s6 4 9.1 5c3 2 6 3 9.1 5 3 2 6 3 8.1 5s4 4 6 6c1 2 2 5 2 8.1 0 2-1 4-2 6s-2 3-4 5l-6 3c-2 1-5 1-7.1 1-3 0-6 0-9.1-1-3-1-5-2-7.1-4s-4-4-6-6-3-5-4-8.1l-8.1 3c1 3 3 6 5 9.1 2 3 4 5 7.1 7.1 3 2 6 3 9.1 4s7.1 1 12.1 1 10.1-1 14.1-2 8.1-3 10.1-6c3-2 5-5 6-8.1 1-3 2-7.1 2-10.1s-1-6-2-9.1c1-3.1-1-5.1-4-7.2zm92.7-52.4v42.4h-47.4V16.1h-15.1v92.8h15.1V64.5h47.4v44.4h15.1V16.1z" fill="#252223"/></svg>