<svg version="1.2" baseProfile="tiny" xmlns="http://www.w3.org/2000/svg" width="600" height="200"><g fill-rule="evenodd"><path fill="#D12221" d="M64.834 51.026L39.515 25.42C69.047.99 118.018-2.415 152.976 25.29a174740.21 174740.21 0 00-25.381 25.675c-9.586-6.135-19.995-9.317-31.33-9.305-11.336.01-21.75 3.195-31.431 9.366zm80.044 17.121l25.189-25.473c23.348 28.532 28.214 78.124.105 114.698l-25.299-25.569c12.189-21.189 12.218-42.288.005-63.656zm-17.286 80.833l25.349 25.644c-31.76 25.814-80.745 26.415-113.463.066l25.348-25.646c9.571 6.145 20.031 9.324 31.396 9.306 11.329-.021 21.75-3.197 31.37-9.37zm-105.4 8.469C9.68 140.671 3.278 121.957 2.951 101.142c-.381-24.147 9.031-45.706 19.418-58.451 8.426 8.518 16.846 17.029 25.24 25.512-12.187 21.16-12.307 42.267-.067 63.595l-25.35 25.651zm245.413-57.36c0-4.586-.019-9.172.005-13.758.018-3.149.402-6.255 1.412-9.252 2.006-5.956 6.011-9.787 12.145-11.316 4.404-1.098 8.821-1.077 13.184.126 6.261 1.727 10.141 5.903 11.951 12.071.781 2.664 1.127 5.403 1.135 8.172.021 9.311.031 18.625-.005 27.938-.012 3.287-.471 6.524-1.625 9.632-2.074 5.584-5.979 9.16-11.747 10.66-4.534 1.177-9.095 1.162-13.591-.112-6.625-1.881-10.394-6.495-12.002-13.032-.593-2.417-.853-4.881-.858-7.369-.012-4.588-.004-9.174-.004-13.76zm11.192.003h-.07v13.05c.001 1.827.115 3.644.674 5.402 1.014 3.199 3.137 5.134 6.492 5.604.783.11 1.59.122 2.378.071 3.45-.229 5.889-1.878 7.157-5.159.739-1.914.893-3.905.895-5.925.002-8.696.018-17.396-.018-26.094-.005-1.44-.107-2.909-.407-4.313-.665-3.124-2.325-5.501-5.561-6.424-1.592-.454-3.214-.496-4.859-.194-2.882.529-4.855 2.154-5.809 4.886-.456 1.306-.805 2.718-.832 4.089-.098 5-.04 10.005-.04 15.007zm57.685-35.527c2.955.063 6.266.369 9.411 1.527a17.828 17.828 0 013.951 2.053c1.618 1.118 2.266 2.79 2.048 4.779-.167 1.517-.611 2.932-1.489 4.181-1.196 1.698-2.79 2.11-4.66 1.206-.882-.428-1.711-.961-2.584-1.411-3.609-1.86-7.413-2.191-11.315-1.236-2.544.622-4.532 2.022-5.282 4.697-.78 2.78-.132 5.252 2.073 7.106 1.381 1.163 2.961 2.123 4.55 2.995 2.087 1.145 4.282 2.092 6.409 3.166 2.934 1.48 5.706 3.203 8.047 5.553 3.301 3.314 5.033 7.349 5.614 11.948.416 3.285.304 6.543-.437 9.76-1.808 7.847-7.191 12.924-15.144 14.215-5.54.899-10.905.217-16.013-2.176-1.747-.817-3.372-1.833-4.761-3.184a16.179 16.179 0 01-1.84-2.107c-2.66-3.675-1.122-7.361 1.001-9.56 1.439-1.489 3.004-1.594 4.633-.317 1.141.89 2.169 1.921 3.256 2.881 1.671 1.477 3.531 2.611 5.715 3.152 2.563.638 5.101.579 7.59-.326 3.252-1.183 4.979-3.701 5.089-7.15.096-2.971-.952-5.448-3.218-7.291-1.549-1.261-3.269-2.334-5.004-3.33-1.984-1.14-4.096-2.05-6.101-3.155-1.675-.924-3.338-1.897-4.897-2.999-5.08-3.584-7.697-8.53-7.915-14.743-.1-2.824.107-5.618 1.054-8.3 2.053-5.813 6.313-9.216 12.079-10.931 2.531-.755 5.129-1.031 8.14-1.003zm-93.629-.019c3.975.071 7.327.408 10.524 1.566 1.26.457 2.505 1.065 3.61 1.819 1.905 1.301 2.673 3.166 2.244 5.493-.249 1.354-.66 2.632-1.479 3.747-1.198 1.632-2.741 2.033-4.558 1.161-.883-.425-1.716-.953-2.586-1.407-3.653-1.905-7.507-2.24-11.447-1.241-2.952.749-4.975 2.535-5.421 5.725-.297 2.124.298 3.975 1.749 5.552 1.188 1.294 2.638 2.242 4.185 3.03 2.29 1.167 4.615 2.267 6.912 3.42 2.346 1.177 4.605 2.494 6.653 4.151 4.332 3.503 6.707 8.051 7.361 13.562.459 3.862.267 7.663-.872 11.385-1.883 6.153-5.926 10.261-12.105 11.98-7.019 1.953-13.811 1.114-20.206-2.443-1.856-1.031-3.468-2.386-4.749-4.099-2.456-3.285-1.971-6.629.547-9.605 1.515-1.791 3.227-1.92 5.045-.471.948.757 1.812 1.619 2.71 2.439 2.191 2.003 4.67 3.404 7.669 3.787 1.939.248 3.838.09 5.685-.502 3.599-1.152 5.606-4.114 5.452-7.905-.101-2.454-.966-4.594-2.779-6.239a23.385 23.385 0 00-3.815-2.832c-2.01-1.186-4.129-2.188-6.208-3.257-2.538-1.307-5.045-2.662-7.295-4.442-4.498-3.556-6.813-8.205-7.045-13.918-.114-2.823.053-5.614.968-8.312 2.003-5.899 6.272-9.363 12.088-11.101 1.25-.373 2.545-.627 3.838-.806 1.29-.176 2.607-.189 3.325-.237z"/><path d="M432.68 101.773c2.822 6.077 5.56 11.967 8.297 17.855 1.556 3.347 3.014 6.745 4.71 10.02.86 1.661-.065 4.002-2.243 4.615-.908.257-1.705-.05-2.224-.806a17.148 17.148 0 01-1.465-2.54c-4.137-9.001-8.247-18.015-12.367-27.023-.194-.423-.4-.841-.625-1.313h-10.662v27.515c0 .328-.016.656.001.983.119 2.2-1.575 3.281-3.61 2.958-1.225-.198-1.997-1.024-2.131-2.259-.037-.371-.019-.749-.019-1.123l-.001-62.735c0-.28-.009-.562.004-.841.075-1.706.82-2.48 2.528-2.509 2.104-.037 4.21-.025 6.315-.008 3.741.031 7.487-.019 11.222.158 3.123.147 6.071 1.069 8.692 2.846 2.868 1.944 4.713 4.655 5.667 7.945 1.466 5.056 1.508 10.157.087 15.228-1.57 5.605-5.259 9.123-10.854 10.67-.395.112-.792.219-1.322.364zm-16.617-4.802h1.541c3.041 0 6.082.026 9.123-.011 1.259-.015 2.532-.071 3.772-.27 4.648-.738 7.717-3.313 8.99-7.919.71-2.569.751-5.186.486-7.798-.639-6.279-4.386-10.035-10.646-10.392-4.245-.242-8.511-.102-12.768-.122-.167 0-.334.119-.499.182l.001 26.33zm82.092 2.307l.001-31.298c0-.421-.023-.845.014-1.263.098-1.067.752-1.822 1.808-2.045.452-.096.93-.106 1.395-.107 4.865-.007 9.73-.01 14.596-.001 2.546.005 5.036.375 7.404 1.347 4.825 1.98 7.604 5.721 9.022 10.604.775 2.669 1.077 5.414 1.083 8.179.026 9.825.033 19.649-.002 29.473-.013 3.24-.411 6.437-1.549 9.504-2.385 6.435-7.133 9.841-13.845 10.337-4.236.31-8.509.138-12.765.175-1.403.012-2.808.028-4.21-.007-2.119-.053-2.948-.914-2.949-3.036-.004-10.622-.003-21.242-.003-31.862zm5.694 28.868c4.654 0 9.152.202 13.624-.06 4.332-.252 7.399-2.631 9.023-6.725.926-2.339 1.23-4.788 1.23-7.284.004-9.87.007-19.74 0-29.609-.003-2.398-.283-4.754-1.146-7.018-1.592-4.172-4.628-6.594-9.051-6.848-4.382-.25-8.787-.119-13.183-.144-.167-.001-.334.112-.499.171.002 19.167.002 38.282.002 57.517zm-42.994-57.712v25.941c.511.023 1.001.064 1.494.064 3.649.006 7.301-.003 10.951.006 2.013.004 3.097 1.215 2.907 3.217-.148 1.587-.952 2.348-2.557 2.354-3.697.015-7.394.005-11.091.005h-1.51c-.292 1.075-.392 23.628-.12 26.125.512.02 1.054.057 1.596.057 8.096.003 16.192.009 24.287-.005 1.06-.001 2.104-.014 2.696 1.07.674 1.233.682 2.508.064 3.767-.309.632-.825 1.01-1.548 1.045-.374.019-.749.019-1.124.019-9.406.003-18.813 0-28.219 0-.326 0-.654.012-.982-.007-1.619-.088-2.47-.953-2.528-2.57-.012-.325-.003-.653-.003-.981V68.066c0-2.945.562-3.503 3.541-3.503h28.079c.327 0 .656-.014.981.011.278.02.567.044.825.137.988.355 1.522 1.569 1.392 3.099-.126 1.468-.816 2.415-1.933 2.578-.46.067-.933.047-1.4.047-8.002.002-16.005.002-24.008.002-.55-.003-1.104-.003-1.79-.003zm-95.446 29.088c-.002-4.914-.024-9.829.007-14.742.019-2.956.313-5.88 1.226-8.718 2.188-6.817 7.308-10.855 14.434-11.405 3.798-.293 7.478.084 10.947 1.764 5.83 2.824 9.214 8.793 8.666 15.251-.207 2.438-2.533 3.569-4.608 2.237-.686-.44-.95-1.095-1.038-1.89-.126-1.16-.238-2.333-.518-3.461-1.037-4.201-3.629-6.869-7.92-7.773-2.513-.529-5.03-.502-7.507.16-3.252.869-5.472 2.947-6.718 6.058a16.08 16.08 0 00-1.172 5.886c-.04 6.037-.035 12.074-.04 18.112-.006 4.445-.057 8.893.025 13.338.033 1.859.187 3.749.581 5.56 1.149 5.283 4.394 8.148 9.771 8.75 2.052.231 4.105.154 6.129-.386 3.083-.826 5.231-2.715 6.24-5.716.562-1.669.852-3.44 1.135-5.189.359-2.241 2.017-3.341 4.145-2.597 1.082.379 1.407 1.296 1.505 2.326.217 2.311.013 4.58-.779 6.773-2.138 5.922-6.529 9.184-12.534 10.426a21.405 21.405 0 01-9.06-.074c-5.904-1.32-9.686-4.996-11.588-10.681-.991-2.959-1.304-6.027-1.322-9.124-.03-4.963-.007-9.925-.007-14.885zm209.708-29.029h-1.656c-3.882 0-7.765-.02-11.647.012-1.154.009-2.142-.151-2.674-1.338-.565-1.267-.396-3.122.457-3.973.277-.276.692-.471 1.077-.571.396-.104.835-.06 1.256-.06 10.667-.003 21.332-.002 31.997-.001.329 0 .655.001.983.011.956.025 1.626.517 1.899 1.395.338 1.085.352 2.213-.067 3.292-.392 1.009-1.202 1.322-2.242 1.317-3.977-.022-7.953-.008-11.93-.008h-1.725v59.409c0 .515.021 1.033-.014 1.545-.111 1.596-1.235 2.552-2.938 2.523-1.648-.027-2.684-.969-2.773-2.535-.022-.418-.004-.841-.004-1.263V72.287l.001-1.794zm-23.908 28.753c0 10.525.009 21.051-.02 31.577-.003.717-.138 1.516-.479 2.126-.575 1.03-2.101 1.403-3.393 1.033-1.187-.342-1.759-1.121-1.83-2.508-.02-.373-.008-.749-.008-1.122V68.179c0-.467-.014-.938.028-1.403.026-.32.085-.658.223-.946.481-1.017 1.901-1.484 3.466-1.175 1.249.246 1.9.944 2.001 2.172.029.372.009.748.009 1.122.003 10.432.003 20.865.003 31.297z"/></g></svg>