<?xml version="1.0" encoding="utf-8"?>
<!-- Generator: Adobe Illustrator 16.0.0, SVG Export Plug-In . SVG Version: 6.00 Build 0)  -->
<svg version="1.2" baseProfile="tiny" id="Слой_1"
	 xmlns="http://www.w3.org/2000/svg" xmlns:xlink="http://www.w3.org/1999/xlink" x="0px" y="0px" width="444px" height="200px"
	 viewBox="0 0 444 200" xml:space="preserve">
<g>
	<path fill-rule="evenodd" fill="#FCD946" d="M81.076,148.601c9.805,0.002,19.61,0.01,29.416-0.016
		c0.603-0.001,1.206-0.27,1.808-0.414c-0.211-0.576-0.363-1.184-0.643-1.724c-2.116-4.075-4.27-8.132-6.38-12.209
		c-0.56-1.08-1.349-1.586-2.588-1.585c-16.887,0.021-33.774,0.018-50.661,0.023c-2.067,0-2.436-0.38-1.945-2.387
		c0.922-3.773,1.581-7.661,2.971-11.261c2.624-6.793,6.696-12.713,12.966-16.655c3.256-2.046,6.786-3.98,10.461-4.97
		c7.188-1.934,14.576-2.979,22.088-1.893c1.828,0.264,3.671,0.523,5.513,0.576c2.053,0.058,3.262,1.075,4.202,2.791
		c2.854,5.211,5.796,10.375,8.684,15.567c2.783,5.004,5.533,10.025,8.314,15.032c3.228,5.807,6.459,11.609,9.721,17.397
		c0.675,1.196,0.741,2.289,0.116,3.539c-1.925,3.862-3.78,7.759-5.658,11.645c-1.593,3.294-3.221,6.573-4.755,9.896
		c-1.534,3.324-3.106,6.642-4.403,10.06c-0.799,2.105-2.28,3.109-4.243,3.603c-8.244,2.071-16.593,3.504-25.123,2.858
		c-4.098-0.312-8.259-0.79-12.208-1.866c-7.719-2.103-14.798-5.573-20.008-11.944c-2.678-3.274-4.659-6.956-6.012-11.016
		c-1.443-4.33-2.55-8.688-2.875-13.256c-0.109-1.529,0.435-1.826,1.826-1.82C61.465,148.622,71.271,148.599,81.076,148.601z"/>
	<path fill-rule="evenodd" fill="#FCD946" d="M54.275,13.343c5.439,4.354,9.882,9.263,12.792,15.402
		c1.38,2.914,2.808,5.867,3.64,8.958c0.838,3.108,1.031,6.402,1.375,9.63c0.23,2.165,0.336,2.374,2.559,2.374
		c1.579,0,3.163,0.064,4.737-0.03c1.017-0.06,1.609,0.302,2.083,1.173c2.223,4.075,4.475,8.133,6.736,12.187
		c2.738,4.908,5.456,9.826,8.271,14.69c0.683,1.18,0.53,1.49-0.79,1.555c-3.913,0.192-7.839,0.304-11.728,0.736
		c-2.784,0.309-5.531,1.014-8.265,1.67c-2.876,0.691-5.815,1.288-8.55,2.371c-3.756,1.486-7.465,3.183-10.98,5.168
		c-5.776,3.261-10.672,7.663-14.822,12.832c-3.234,4.026-5.988,8.385-7.75,13.271c-1.333,3.695-2.565,7.432-3.658,11.204
		c-0.539,1.862-0.83,3.834-0.944,5.773c-0.413,7.057-0.963,14.123,0.438,21.148c0.464,2.331,0.726,4.708,1.297,7.012
		c0.568,2.297,1.185,4.629,2.176,6.762c1.638,3.521,3.39,7.026,5.462,10.305c3.82,6.048,8.958,10.881,14.831,14.938
		c0.487,0.337,1.03,0.592,1.541,0.895c0.456,0.271,0.902,0.556,1.783,1.101c-0.866,0.177-1.323,0.35-1.78,0.351
		c-9.422,0.001-18.845-0.019-28.268-0.03c-2.793-0.003-2.695-0.039-3.733-2.558c-1.886-4.577-3.835-9.131-5.88-13.641
		c-2.762-6.084-5.615-12.131-8.473-18.173c-1.747-3.691-3.611-7.33-5.335-11.032c-0.214-0.459-0.071-1.26,0.195-1.745
		c3.653-6.621,7.374-13.205,11.042-19.82c3.535-6.375,7.001-12.789,10.549-19.155c3.182-5.708,6.467-11.36,9.649-17.068
		c3.181-5.706,6.267-11.465,9.444-17.174c3.178-5.71,6.422-11.384,9.627-17.081c1.138-2.021,2.309-4.026,3.341-6.101
		c0.604-1.214,1.453-1.618,2.742-1.557c1.631,0.076,3.269-0.014,4.901,0.042c1.102,0.036,1.548-0.354,1.571-1.507
		c0.071-3.682-0.732-7.165-1.85-10.66C61.867,30.098,57.546,24.02,51.624,19c-0.757-0.643-0.911-1.227-0.182-2.054
		C52.435,15.82,53.307,14.587,54.275,13.343z"/>
	<path fill-rule="evenodd" fill="#27874F" d="M99.726,43.097c-3.411-0.5-6.94-0.613-10.2-1.609
		c-3.348-1.023-6.454-2.869-9.621-4.445c-1.048-0.521-1.944-1.343-2.935-1.99c-1.047-0.684-1.128-1.69-0.876-2.73
		c0.316-1.303,0.611-2.646,1.182-3.845c1.512-3.171,2.963-6.403,4.835-9.359c1.345-2.125,3.232-3.941,5.048-5.721
		c2.909-2.853,6.27-5.158,10.009-6.747c2.485-1.056,5.192-1.573,7.766-2.433c2.684-0.896,5.427-0.924,8.208-0.951
		c3.62-0.035,7.01,0.896,10.465,1.816c4.581,1.219,8.433,3.694,12.205,6.351c0.474,0.333,0.654,1.543,0.49,2.233
		c-0.468,1.968-0.983,3.973-1.848,5.788c-1.33,2.785-2.806,5.53-4.511,8.097c-2.175,3.274-4.952,6.064-8.249,8.238
		c-2.1,1.382-4.24,2.776-6.535,3.763c-2.753,1.183-5.641,2.15-8.562,2.808c-2.197,0.495-4.536,0.354-6.812,0.495
		C99.764,42.937,99.745,43.017,99.726,43.097z"/>
	<path fill-rule="evenodd" fill="#27874F" d="M381.428,161.622c-10.787,0.001-21.572,0.003-32.359,0
		c-2.073-0.001-2.057-0.011-2.057-2.103c0.006-15.036,0.004-30.07,0.004-45.105c0-2.237-0.002-2.239,2.294-2.244
		c1.253-0.003,2.505-0.014,3.759,0.005c1.919,0.025,2.147,0.245,2.151,2.193c0.008,6.919,0,13.837,0,20.755
		c-0.002,5.937,0.026,11.876-0.026,17.813c-0.014,1.38,0.377,1.947,1.854,1.933c5.938-0.064,11.875-0.022,17.813-0.029
		c2.125-0.002,2.389-0.298,2.389-2.474c-0.004-12.747,0.017-25.495-0.034-38.242c-0.006-1.499,0.438-2.093,1.958-1.974
		c1.297,0.1,2.613,0.012,3.92,0.021c2.159,0.018,2.354,0.204,2.357,2.317c0.006,5.176-0.002,10.351-0.003,15.525
		c0,7.627,0.028,15.252-0.029,22.88c-0.009,1.491,0.465,1.995,1.979,1.976c5.884-0.07,11.767-0.024,17.65-0.029
		c2.193-0.001,2.446-0.271,2.444-2.414c-0.005-12.802,0.014-25.603-0.032-38.404c-0.005-1.448,0.491-1.95,1.9-1.871
		c1.573,0.088,3.158,0.032,4.738,0.027c1.073-0.002,1.613,0.508,1.594,1.597c-0.009,0.49,0.006,0.981,0.006,1.471
		c0.002,14.817-0.022,29.635,0.036,44.452c0.008,1.54-0.466,1.959-1.948,1.952C402.999,161.601,392.214,161.622,381.428,161.622z"/>
	<path fill-rule="evenodd" fill="#27874F" d="M273.037,136.88c0.548-3.34,0.62-6.747,1.724-9.778
		c1.597-4.395,4.054-8.332,8.124-11.172c3.105-2.164,6.467-3.853,10.005-4.501c4.522-0.827,9.157-2.042,13.887-0.668
		c2.361,0.686,4.896,0.784,7.257,1.476c1.772,0.518,3.57,1.32,5.043,2.415c2.407,1.787,4.854,3.676,6.734,5.972
		c1.568,1.913,2.655,4.376,3.396,6.77c0.929,3.005,1.731,6.18,1.79,9.296c0.093,5.03-0.974,9.913-3.674,14.345
		c-2.706,4.441-6.354,7.665-11.152,9.692c-5.171,2.183-10.553,3.24-16.104,2.836c-3.138-0.229-6.238-1.139-9.327-1.862
		c-4.938-1.156-8.999-3.859-12.097-7.784c-1.943-2.462-3.651-5.186-4.164-8.433C274.023,142.615,273.521,139.756,273.037,136.88z
		 M322.959,136.95c0.134-0.021,0.269-0.045,0.401-0.068c-0.516-2.8-0.689-5.721-1.625-8.372c-1.651-4.673-4.977-8.261-9.556-10.016
		c-3.264-1.25-6.939-1.78-10.454-1.886c-2.769-0.086-5.628,0.775-8.338,1.584c-1.966,0.587-3.977,1.49-5.573,2.753
		c-3.602,2.848-5.402,6.693-6.294,11.297c-0.907,4.688-0.333,8.99,1.072,13.38c1.184,3.689,3.579,6.414,6.722,8.44
		c2.253,1.454,4.893,1.999,7.508,2.706c5.522,1.493,10.672,0.352,15.688-1.493c3.191-1.171,5.785-3.531,7.577-6.559
		C322.231,145.093,323.288,141.189,322.959,136.95z"/>
	<path fill-rule="evenodd" fill="#27874F" d="M216.07,137.037c0-7.677,0.035-15.354-0.031-23.03
		c-0.012-1.456,0.458-1.875,1.87-1.862c6.914,0.056,13.837-0.168,20.74,0.11c3.413,0.138,6.847,0.938,10.169,1.824
		c2.663,0.709,5.301,1.757,7.713,3.084c3.324,1.831,5.738,4.545,7.229,8.213c1.246,3.066,1.133,6.146,0.541,9.093
		c-0.652,3.235-2.676,5.948-5.345,8.049c-2.304,1.812-4.812,3.215-7.643,4.027c-1.959,0.563-3.903,1.182-5.861,1.746
		c-0.463,0.133-0.96,0.205-1.443,0.213c-5.987,0.094-11.975,0.221-17.962,0.213c-1.398-0.001-1.835,0.458-1.817,1.765
		c0.044,3.212-0.022,6.427,0.046,9.637c0.024,1.163-0.405,1.552-1.519,1.518c-1.686-0.053-3.378-0.068-5.062,0.004
		c-1.305,0.057-1.661-0.468-1.651-1.736C216.096,152.282,216.07,144.658,216.07,137.037z M224.246,130.668
		c0,3.318,0.079,6.642-0.037,9.957c-0.052,1.507,0.5,1.84,1.879,1.818c4.298-0.071,8.599-0.089,12.896-0.007
		c3.732,0.074,7.309-0.46,10.748-1.964c6.146-2.688,8.333-9.123,5.493-14.8c-1.961-3.922-5.738-5.874-9.816-6.273
		c-6.422-0.629-12.916-0.521-19.377-0.804c-1.417-0.062-1.817,0.502-1.804,1.786C224.264,123.811,224.241,127.238,224.246,130.668z"
		/>
	<path fill-rule="evenodd" fill="#27874F" d="M168.742,136.819c0.001-7.623,0.03-15.248-0.027-22.872
		c-0.01-1.348,0.376-1.806,1.746-1.801c10.347,0.042,20.694,0.039,31.042,0.004c1.29-0.006,1.767,0.436,1.669,1.718
		c-0.089,1.189-0.074,2.398-0.007,3.591c0.076,1.339-0.423,1.788-1.802,1.775c-7.407-0.063-14.813-0.032-22.219-0.033
		c-2.282,0-2.273,0.001-2.273,2.201c0.004,12.853-0.013,25.704,0.032,38.556c0.005,1.315-0.435,1.741-1.694,1.683
		c-1.576-0.074-3.162-0.084-4.736,0.002c-1.354,0.072-1.771-0.418-1.76-1.786C168.774,152.178,168.742,144.499,168.742,136.819z"/>
	<path fill-rule="evenodd" fill="#27874F" d="M433.837,137.53c0-7.514,0.03-15.027-0.028-22.541
		c-0.011-1.338,0.347-1.894,1.733-1.821c1.629,0.084,3.265,0.055,4.897,0.007c1.079-0.03,1.561,0.299,1.561,1.486
		c-0.03,15.191-0.028,30.383-0.004,45.573c0.004,1.117-0.476,1.42-1.474,1.397c-1.689-0.038-3.381-0.069-5.064,0.01
		c-1.313,0.062-1.656-0.469-1.647-1.731C433.862,152.45,433.837,144.99,433.837,137.53z"/>
</g>
</svg>
