<?xml version="1.0" encoding="utf-8"?>
<!-- Generator: Adobe Illustrator 23.0.3, SVG Export Plug-In . SVG Version: 6.00 Build 0)  -->
<svg version="1.1" id="Слой_1" xmlns="http://www.w3.org/2000/svg" xmlns:xlink="http://www.w3.org/1999/xlink" x="0px" y="0px"
	 width="452px" height="186px" viewBox="0 0 452 186" style="enable-background:new 0 0 452 186;" xml:space="preserve">
<style type="text/css">
	.st0{fill:#404A9F;}
</style>
<g>
	<path class="st0" d="M27.9,167.2c0.2,0.3,0.1,0.5-0.1,0.7l-2.8,2.1c-0.3,0.3-0.7,0.1-0.8-0.1c-1.8-2.4-3.8-3.5-6.7-3.5
		c-4.4,0-7.3,3.1-7.3,7.4c0,4.3,2.9,7.5,7.3,7.5c3,0,5.1-1,6.9-3.7c0.2-0.2,0.4-0.2,0.7,0l2.8,2.2c0.2,0.2,0.3,0.5,0.1,0.7
		c-2.2,3.7-6,5.6-10.4,5.6c-7,0-12.3-5.3-12.3-12.3c0-7,5.3-12.2,12.3-12.2C21.6,161.6,25.8,163.6,27.9,167.2z"/>
	<path class="st0" d="M88.3,161.9c5.3,0,9.4,3.7,9.4,8.7c0,3.1-1.7,5.8-4.2,7.3l3.8,7.2c0.2,0.3,0,0.6-0.4,0.6h-4.3
		c-0.4,0-0.6-0.1-0.8-0.4l-2.9-5.9c-0.3,0-0.5,0-0.7,0H82v5.7c0,0.4-0.2,0.6-0.6,0.6h-3.9c-0.4,0-0.6-0.2-0.6-0.6v-22.5
		c0-0.4,0.2-0.6,0.6-0.6L88.3,161.9L88.3,161.9z M88.3,174.6c2.8,0,4.3-1.7,4.3-4c0-2.2-1.5-3.9-4.3-3.9H82v7.8H88.3z"/>
	<path class="st0" d="M165.5,161.9c0.4,0,0.6,0.2,0.6,0.6v3.5c0,0.4-0.2,0.6-0.6,0.6h-13.3v4.4h11.6c0.4,0,0.6,0.2,0.6,0.6v3.5
		c0,0.4-0.2,0.6-0.6,0.6h-11.6v5.1h13.6c0.4,0,0.6,0.2,0.6,0.6v3.5c0,0.4-0.2,0.6-0.6,0.6h-18.1c-0.4,0-0.6-0.2-0.6-0.6v-22.5
		c0-0.3,0.3-0.6,0.6-0.6L165.5,161.9L165.5,161.9L165.5,161.9z"/>
	<path class="st0" d="M226,161.9c6.8,0,12.3,4.9,12.3,11.9c0,7.1-5.5,11.9-12.3,11.9h-9.3c-0.4,0-0.6-0.2-0.6-0.6v-22.5
		c0-0.4,0.2-0.6,0.6-0.6L226,161.9L226,161.9z M221.1,180.9h4.9c4.3,0,7.1-2.7,7.1-7.1c0-4.4-2.8-7.1-7.1-7.1h-4.9V180.9z"/>
	<path class="st0" d="M291.8,161.9c0.4,0,0.6,0.2,0.6,0.6v22.5c0,0.4-0.2,0.6-0.6,0.6h-3.9c-0.4,0-0.6-0.2-0.6-0.6v-22.5
		c0-0.4,0.2-0.6,0.6-0.6H291.8z"/>
	<path class="st0" d="M361.5,161.9c0.4,0,0.6,0.2,0.6,0.6v3.6c0,0.4-0.2,0.6-0.6,0.6h-7.6v18.3c0,0.4-0.2,0.6-0.6,0.6h-3.9
		c-0.4,0-0.6-0.2-0.6-0.6v-18.3h-7.6c-0.4,0-0.6-0.2-0.6-0.6v-3.6c0-0.4,0.2-0.6,0.6-0.6L361.5,161.9L361.5,161.9z"/>
	<path class="st0" d="M276.2,134.5H236c-22.1,0-40.2-17.9-40.2-40V69.8c0-22,18-40,40.2-40h40.2c22.1,0,40.2,17.9,40.2,40v24.8
		C316.3,116.6,298.3,134.5,276.2,134.5z M236,45.8c-13.3,0-24.1,10.8-24.1,24v24.8c0,13.2,10.8,24,24.1,24h40.2
		c13.3,0,24.1-10.8,24.1-24V69.8c0-13.2-10.8-24-24.1-24C276.2,45.8,236,45.8,236,45.8z"/>
	<path class="st0" d="M182.1,134.5c-27.1,0-49.1-21.9-49.1-48.9V0h9.2c3.8,0,6.9,3.1,6.9,6.9v78.8c0,16.2,11.8,29.7,27.3,32.4
		c3.3,0.6,5.7,3.3,5.7,6.6V134.5z"/>
	<path class="st0" d="M91.5,134.5h-66C11.4,134.5,0,123.1,0,109.1h10.7c2.7,0,5.1,1.5,6.2,3.9c1.5,3.2,4.8,5.5,8.6,5.5H91
		c5.1,0,9.7-3.4,10.7-8.3c1.2-5.8-2.6-11.2-8.1-12.4l-72-15.5C9.7,79.7,0.6,69.6,0,57.5c-0.7-15.2,11.5-27.7,26.6-27.7H91
		c14.1,0,25.5,11.4,25.5,25.4h-10.7c-2.7,0-5.1-1.5-6.2-3.9c-1.5-3.2-4.8-5.5-8.6-5.5H27c-5.1,0-9.7,3.4-10.7,8.3
		c-1.2,5.8,2.6,11.2,8.1,12.4l72.7,15.6c12.1,2.6,21,13.5,21,25.9C118.1,122.6,106.1,134.5,91.5,134.5z"/>
	<path class="st0" d="M411.8,90.1H403c-4,0-7.2-3.2-7.2-7.2v-8.7h8.7c4,0,7.2,3.2,7.2,7.2V90.1z"/>
	<path class="st0" d="M443,185.7h9.2v-92c0-35.3-28.8-63.9-64.3-63.9h-41.8c-6.7,0-12,5.4-12,12v65c0,15.3,12.5,27.7,27.9,27.7
		v-10.4c0-2.8-1.6-5.3-4.2-6.3c-4.4-1.7-7.6-6-7.6-11v-61h37.7c26.6,0,48.2,21.5,48.2,48v85.1C436.1,182.6,439.2,185.7,443,185.7z"
		/>
</g>
</svg>
