<?xml version="1.0" encoding="utf-8"?>
<!-- Generator: Adobe Illustrator 16.0.0, SVG Export Plug-In . SVG Version: 6.00 Build 0)  -->
<svg version="1.2" baseProfile="tiny" id="Слой_1"
	 xmlns="http://www.w3.org/2000/svg" xmlns:xlink="http://www.w3.org/1999/xlink" x="0px" y="0px" width="600px" height="200px"
	 viewBox="0 0 600 200" xml:space="preserve">
<g>
	<path fill-rule="evenodd" fill="#D12221" d="M64.834,51.026c-8.49-8.585-16.902-17.093-25.319-25.606
		c29.532-24.43,78.503-27.835,113.461-0.13c-8.452,8.548-16.889,17.083-25.381,25.675c-9.586-6.135-19.995-9.317-31.33-9.305
		C84.929,41.67,74.515,44.855,64.834,51.026z"/>
	<path fill-rule="evenodd" fill="#D12221" d="M144.878,68.147c8.358-8.452,16.768-16.958,25.189-25.473
		c23.348,28.532,28.214,78.124,0.105,114.698c-8.454-8.545-16.891-17.071-25.299-25.569
		C157.062,110.614,157.091,89.515,144.878,68.147z"/>
	<path fill-rule="evenodd" fill="#D12221" d="M127.592,148.98c8.523,8.622,16.932,17.129,25.349,25.644
		c-31.76,25.814-80.745,26.415-113.463,0.066c8.417-8.516,16.822-17.02,25.348-25.646c9.571,6.145,20.031,9.324,31.396,9.306
		C107.551,158.329,117.972,155.153,127.592,148.98z"/>
	<path fill-rule="evenodd" fill="#D12221" d="M22.192,157.449C9.68,140.671,3.278,121.957,2.951,101.142
		C2.57,76.995,11.982,55.436,22.369,42.691c8.426,8.518,16.846,17.029,25.24,25.512c-12.187,21.16-12.307,42.267-0.067,63.595
		C39.206,140.232,30.766,148.774,22.192,157.449z"/>
	<path fill-rule="evenodd" fill="#D12221" d="M267.605,100.089c0-4.586-0.019-9.172,0.005-13.758
		c0.018-3.149,0.402-6.255,1.412-9.252c2.006-5.956,6.011-9.787,12.145-11.316c4.404-1.098,8.821-1.077,13.184,0.126
		c6.261,1.727,10.141,5.903,11.951,12.071c0.781,2.664,1.127,5.403,1.135,8.172c0.021,9.311,0.031,18.625-0.005,27.938
		c-0.012,3.287-0.471,6.524-1.625,9.632c-2.074,5.584-5.979,9.16-11.747,10.66c-4.534,1.177-9.095,1.162-13.591-0.112
		c-6.625-1.881-10.394-6.495-12.002-13.032c-0.593-2.417-0.853-4.881-0.858-7.369C267.597,109.261,267.605,104.675,267.605,100.089z
		 M278.797,100.092c-0.023,0-0.047,0-0.07,0c0,4.35-0.001,8.699,0,13.05c0.001,1.827,0.115,3.644,0.674,5.402
		c1.014,3.199,3.137,5.134,6.492,5.604c0.783,0.11,1.59,0.122,2.378,0.071c3.45-0.229,5.889-1.878,7.157-5.159
		c0.739-1.914,0.893-3.905,0.895-5.925c0.002-8.696,0.018-17.396-0.018-26.094c-0.005-1.44-0.107-2.909-0.407-4.313
		c-0.665-3.124-2.325-5.501-5.561-6.424c-1.592-0.454-3.214-0.496-4.859-0.194c-2.882,0.529-4.855,2.154-5.809,4.886
		c-0.456,1.306-0.805,2.718-0.832,4.089C278.739,90.085,278.797,95.09,278.797,100.092z"/>
	<path fill-rule="evenodd" fill="#D12221" d="M336.482,64.565c2.955,0.063,6.266,0.369,9.411,1.527
		c1.385,0.509,2.738,1.214,3.951,2.053c1.618,1.118,2.266,2.79,2.048,4.779c-0.167,1.517-0.611,2.932-1.489,4.181
		c-1.196,1.698-2.79,2.11-4.66,1.206c-0.882-0.428-1.711-0.961-2.584-1.411c-3.609-1.86-7.413-2.191-11.315-1.236
		c-2.544,0.622-4.532,2.022-5.282,4.697c-0.78,2.78-0.132,5.252,2.073,7.106c1.381,1.163,2.961,2.123,4.55,2.995
		c2.087,1.145,4.282,2.092,6.409,3.166c2.934,1.48,5.706,3.203,8.047,5.553c3.301,3.314,5.033,7.349,5.614,11.948
		c0.416,3.285,0.304,6.543-0.437,9.76c-1.808,7.847-7.191,12.924-15.144,14.215c-5.54,0.899-10.905,0.217-16.013-2.176
		c-1.747-0.817-3.372-1.833-4.761-3.184c-0.666-0.646-1.295-1.354-1.84-2.107c-2.66-3.675-1.122-7.361,1.001-9.56
		c1.439-1.489,3.004-1.594,4.633-0.317c1.141,0.89,2.169,1.921,3.256,2.881c1.671,1.477,3.531,2.611,5.715,3.152
		c2.563,0.638,5.101,0.579,7.59-0.326c3.252-1.183,4.979-3.701,5.089-7.15c0.096-2.971-0.952-5.448-3.218-7.291
		c-1.549-1.261-3.269-2.334-5.004-3.33c-1.984-1.14-4.096-2.05-6.101-3.155c-1.675-0.924-3.338-1.897-4.897-2.999
		c-5.08-3.584-7.697-8.53-7.915-14.743c-0.1-2.824,0.107-5.618,1.054-8.3c2.053-5.813,6.313-9.216,12.079-10.931
		C330.873,64.813,333.471,64.537,336.482,64.565z"/>
	<path fill-rule="evenodd" fill="#D12221" d="M242.853,64.546c3.975,0.071,7.327,0.408,10.524,1.566
		c1.26,0.457,2.505,1.065,3.61,1.819c1.905,1.301,2.673,3.166,2.244,5.493c-0.249,1.354-0.66,2.632-1.479,3.747
		c-1.198,1.632-2.741,2.033-4.558,1.161c-0.883-0.425-1.716-0.953-2.586-1.407c-3.653-1.905-7.507-2.24-11.447-1.241
		c-2.952,0.749-4.975,2.535-5.421,5.725c-0.297,2.124,0.298,3.975,1.749,5.552c1.188,1.294,2.638,2.242,4.185,3.03
		c2.29,1.167,4.615,2.267,6.912,3.42c2.346,1.177,4.605,2.494,6.653,4.151c4.332,3.503,6.707,8.051,7.361,13.562
		c0.459,3.862,0.267,7.663-0.872,11.385c-1.883,6.153-5.926,10.261-12.105,11.98c-7.019,1.953-13.811,1.114-20.206-2.443
		c-1.856-1.031-3.468-2.386-4.749-4.099c-2.456-3.285-1.971-6.629,0.547-9.605c1.515-1.791,3.227-1.92,5.045-0.471
		c0.948,0.757,1.812,1.619,2.71,2.439c2.191,2.003,4.67,3.404,7.669,3.787c1.939,0.248,3.838,0.09,5.685-0.502
		c3.599-1.152,5.606-4.114,5.452-7.905c-0.101-2.454-0.966-4.594-2.779-6.239c-1.168-1.061-2.456-2.031-3.815-2.832
		c-2.01-1.186-4.129-2.188-6.208-3.257c-2.538-1.307-5.045-2.662-7.295-4.442c-4.498-3.556-6.813-8.205-7.045-13.918
		c-0.114-2.823,0.053-5.614,0.968-8.312c2.003-5.899,6.272-9.363,12.088-11.101c1.25-0.373,2.545-0.627,3.838-0.806
		C240.818,64.607,242.135,64.594,242.853,64.546z"/>
	<path fill-rule="evenodd" d="M432.68,101.773c2.822,6.077,5.56,11.967,8.297,17.855c1.556,3.347,3.014,6.745,4.71,10.02
		c0.86,1.661-0.065,4.002-2.243,4.615c-0.908,0.257-1.705-0.05-2.224-0.806c-0.552-0.804-1.059-1.654-1.465-2.54
		c-4.137-9.001-8.247-18.015-12.367-27.023c-0.194-0.423-0.4-0.841-0.625-1.313c-3.511,0-6.996,0-10.662,0c0,0.602,0,1.146,0,1.693
		c0,8.608,0,17.215,0,25.822c0,0.328-0.016,0.656,0.001,0.983c0.119,2.2-1.575,3.281-3.61,2.958
		c-1.225-0.198-1.997-1.024-2.131-2.259c-0.037-0.371-0.019-0.749-0.019-1.123c-0.001-20.911-0.001-41.823-0.001-62.735
		c0-0.28-0.009-0.562,0.004-0.841c0.075-1.706,0.82-2.48,2.528-2.509c2.104-0.037,4.21-0.025,6.315-0.008
		c3.741,0.031,7.487-0.019,11.222,0.158c3.123,0.147,6.071,1.069,8.692,2.846c2.868,1.944,4.713,4.655,5.667,7.945
		c1.466,5.056,1.508,10.157,0.087,15.228c-1.57,5.605-5.259,9.123-10.854,10.67C433.607,101.521,433.21,101.628,432.68,101.773z
		 M416.063,96.971c0.612,0,1.077,0,1.541,0c3.041,0,6.082,0.026,9.123-0.011c1.259-0.015,2.532-0.071,3.772-0.27
		c4.648-0.738,7.717-3.313,8.99-7.919c0.71-2.569,0.751-5.186,0.486-7.798c-0.639-6.279-4.386-10.035-10.646-10.392
		c-4.245-0.242-8.511-0.102-12.768-0.122c-0.167,0-0.334,0.119-0.499,0.182C416.063,79.385,416.063,88.077,416.063,96.971z"/>
	<path fill-rule="evenodd" d="M498.155,99.278c0-10.433,0-20.865,0.001-31.298c0-0.421-0.023-0.845,0.014-1.263
		c0.098-1.067,0.752-1.822,1.808-2.045c0.452-0.096,0.93-0.106,1.395-0.107c4.865-0.007,9.73-0.01,14.596-0.001
		c2.546,0.005,5.036,0.375,7.404,1.347c4.825,1.98,7.604,5.721,9.022,10.604c0.775,2.669,1.077,5.414,1.083,8.179
		c0.026,9.825,0.033,19.649-0.002,29.473c-0.013,3.24-0.411,6.437-1.549,9.504c-2.385,6.435-7.133,9.841-13.845,10.337
		c-4.236,0.31-8.509,0.138-12.765,0.175c-1.403,0.012-2.808,0.028-4.21-0.007c-2.119-0.053-2.948-0.914-2.949-3.036
		C498.154,120.518,498.155,109.898,498.155,99.278z M503.849,128.146c4.654,0,9.152,0.202,13.624-0.06
		c4.332-0.252,7.399-2.631,9.023-6.725c0.926-2.339,1.23-4.788,1.23-7.284c0.004-9.87,0.007-19.74,0-29.609
		c-0.003-2.398-0.283-4.754-1.146-7.018c-1.592-4.172-4.628-6.594-9.051-6.848c-4.382-0.25-8.787-0.119-13.183-0.144
		c-0.167-0.001-0.334,0.112-0.499,0.171C503.849,89.796,503.849,108.911,503.849,128.146z"/>
	<path fill-rule="evenodd" d="M460.855,70.434c0,8.752,0,17.262,0,25.941c0.511,0.023,1.001,0.064,1.494,0.064
		c3.649,0.006,7.301-0.003,10.951,0.006c2.013,0.004,3.097,1.215,2.907,3.217c-0.148,1.587-0.952,2.348-2.557,2.354
		c-3.697,0.015-7.394,0.005-11.091,0.005c-0.512,0-1.022,0-1.51,0c-0.292,1.075-0.392,23.628-0.12,26.125
		c0.512,0.02,1.054,0.057,1.596,0.057c8.096,0.003,16.192,0.009,24.287-0.005c1.06-0.001,2.104-0.014,2.696,1.07
		c0.674,1.233,0.682,2.508,0.064,3.767c-0.309,0.632-0.825,1.01-1.548,1.045c-0.374,0.019-0.749,0.019-1.124,0.019
		c-9.406,0.003-18.813,0-28.219,0c-0.326,0-0.654,0.012-0.982-0.007c-1.619-0.088-2.47-0.953-2.528-2.57
		c-0.012-0.325-0.003-0.653-0.003-0.981c0-20.824-0.001-41.649,0-62.475c0-2.945,0.562-3.503,3.541-3.503
		c9.359-0.001,18.719,0,28.079,0c0.327,0,0.656-0.014,0.981,0.011c0.278,0.02,0.567,0.044,0.825,0.137
		c0.988,0.355,1.522,1.569,1.392,3.099c-0.126,1.468-0.816,2.415-1.933,2.578c-0.46,0.067-0.933,0.047-1.4,0.047
		c-8.002,0.002-16.005,0.002-24.008,0.002C462.095,70.434,461.541,70.434,460.855,70.434z"/>
	<path fill-rule="evenodd" d="M365.409,99.522c-0.002-4.914-0.024-9.829,0.007-14.742c0.019-2.956,0.313-5.88,1.226-8.718
		c2.188-6.817,7.308-10.855,14.434-11.405c3.798-0.293,7.478,0.084,10.947,1.764c5.83,2.824,9.214,8.793,8.666,15.251
		c-0.207,2.438-2.533,3.569-4.608,2.237c-0.686-0.44-0.95-1.095-1.038-1.89c-0.126-1.16-0.238-2.333-0.518-3.461
		c-1.037-4.201-3.629-6.869-7.92-7.773c-2.513-0.529-5.03-0.502-7.507,0.16c-3.252,0.869-5.472,2.947-6.718,6.058
		c-0.752,1.885-1.16,3.86-1.172,5.886c-0.04,6.037-0.035,12.074-0.04,18.112c-0.006,4.445-0.057,8.893,0.025,13.338
		c0.033,1.859,0.187,3.749,0.581,5.56c1.149,5.283,4.394,8.148,9.771,8.75c2.052,0.231,4.105,0.154,6.129-0.386
		c3.083-0.826,5.231-2.715,6.24-5.716c0.562-1.669,0.852-3.44,1.135-5.189c0.359-2.241,2.017-3.341,4.145-2.597
		c1.082,0.379,1.407,1.296,1.505,2.326c0.217,2.311,0.013,4.58-0.779,6.773c-2.138,5.922-6.529,9.184-12.534,10.426
		c-3.007,0.622-6.057,0.597-9.06-0.074c-5.904-1.32-9.686-4.996-11.588-10.681c-0.991-2.959-1.304-6.027-1.322-9.124
		C365.386,109.444,365.409,104.482,365.409,99.522z"/>
	<path fill-rule="evenodd" d="M575.117,70.493c-0.653,0-1.153,0-1.656,0c-3.882,0-7.765-0.02-11.647,0.012
		c-1.154,0.009-2.142-0.151-2.674-1.338c-0.565-1.267-0.396-3.122,0.457-3.973c0.277-0.276,0.692-0.471,1.077-0.571
		c0.396-0.104,0.835-0.06,1.256-0.06c10.667-0.003,21.332-0.002,31.997-0.001c0.329,0,0.655,0.001,0.983,0.011
		c0.956,0.025,1.626,0.517,1.899,1.395c0.338,1.085,0.352,2.213-0.067,3.292c-0.392,1.009-1.202,1.322-2.242,1.317
		c-3.977-0.022-7.953-0.008-11.93-0.008c-0.509,0-1.021,0-1.725,0c0,0.685,0,1.277,0,1.87c0,19.18,0,38.36,0,57.539
		c0,0.515,0.021,1.033-0.014,1.545c-0.111,1.596-1.235,2.552-2.938,2.523c-1.648-0.027-2.684-0.969-2.773-2.535
		c-0.022-0.418-0.004-0.841-0.004-1.263c0-19.32,0-38.64,0-57.961C575.117,71.737,575.117,71.188,575.117,70.493z"/>
	<path fill-rule="evenodd" d="M551.209,99.246c0,10.525,0.009,21.051-0.02,31.577c-0.003,0.717-0.138,1.516-0.479,2.126
		c-0.575,1.03-2.101,1.403-3.393,1.033c-1.187-0.342-1.759-1.121-1.83-2.508c-0.02-0.373-0.008-0.749-0.008-1.122
		c0-20.726,0-41.449,0-62.173c0-0.467-0.014-0.938,0.028-1.403c0.026-0.32,0.085-0.658,0.223-0.946
		c0.481-1.017,1.901-1.484,3.466-1.175c1.249,0.246,1.9,0.944,2.001,2.172c0.029,0.372,0.009,0.748,0.009,1.122
		C551.209,78.381,551.209,88.814,551.209,99.246z"/>
</g>
</svg>
